<?xml version="1.0" encoding="utf-8"?>
<!-- Generator: Adobe Illustrator 24.2.3, SVG Export Plug-In . SVG Version: 6.00 Build 0)  -->
<svg version="1.0" xmlns="http://www.w3.org/2000/svg" xmlns:xlink="http://www.w3.org/1999/xlink" x="0px" y="0px"
	 viewBox="0 0 533.4 74.9" enable-background="new 0 0 533.4 74.9" xml:space="preserve">
<g id="Layer_1" display="none">
	<rect x="-39.8" y="193.1" display="inline" fill="#E30613" width="768.9" height="173.1"/>
	<g display="inline">
		<defs>
			<rect id="SVGID_1_" x="-76.3" y="-143.7" width="841.9" height="595.3"/>
		</defs>
		<clipPath id="SVGID_2_">
			<use xlink:href="#SVGID_1_"  overflow="visible"/>
		</clipPath>
	</g>
	<text transform="matrix(1 0 0 1 910.161 96.3165)" display="inline"><tspan x="0" y="0" fill="#FFED00" font-family="'BernardMT-Condensed'" font-size="78px" letter-spacing="-2">B</tspan><tspan x="40" y="0" fill="#FFED00" font-family="'BernardMT-Condensed'" font-size="78px" letter-spacing="-2">u</tspan><tspan x="76" y="0" fill="#FFED00" font-family="'BernardMT-Condensed'" font-size="78px" letter-spacing="-1">c</tspan><tspan x="104.1" y="0" fill="#FFED00" font-family="'BernardMT-Condensed'" font-size="78px">h</tspan><tspan x="141.8" y="0" fill="#FFED00" font-family="'BernardMT-Condensed'" font-size="78px">a</tspan><tspan x="179" y="0" fill="#FFED00" font-family="'BernardMT-Condensed'" font-size="78px">n</tspan><tspan x="216.7" y="0" fill="#FFED00" font-family="'BernardMT-Condensed'" font-size="78px">a</tspan><tspan x="253.9" y="0" fill="#FFED00" font-family="'BernardMT-Condensed'" font-size="78px">n</tspan><tspan x="292.1" y="0" fill="#FFED00" font-family="'BernardMT-Condensed'" font-size="78px" letter-spacing="-14"> </tspan><tspan x="297.2" y="0" fill="#FFED00" font-family="'BernardMT-Condensed'" font-size="78px">&amp;</tspan><tspan x="347.6" y="0" fill="#FFED00" font-family="'BernardMT-Condensed'" font-size="78px" letter-spacing="-13"> </tspan><tspan x="352.7" y="0" fill="#FFED00" font-family="'BernardMT-Condensed'" font-size="78px" letter-spacing="-2">P</tspan><tspan x="392.9" y="0" fill="#FFED00" font-family="'BernardMT-Condensed'" font-size="78px" letter-spacing="-2">i</tspan><tspan x="410.6" y="0" fill="#FFED00" font-family="'BernardMT-Condensed'" font-size="78px">t</tspan><tspan x="431.1" y="0" fill="#FFED00" font-family="'BernardMT-Condensed'" font-size="78px">t</tspan><tspan x="452.4" y="0" fill="#FFED00" font-family="'BernardMT-Condensed'" font-size="78px">s </tspan><tspan x="497.5" y="0" fill="#FFED00" font-family="'BernardMT-Condensed'" font-size="78px" letter-spacing="-1">L</tspan><tspan x="527.8" y="0" fill="#FFED00" font-family="'BernardMT-Condensed'" font-size="78px">t</tspan><tspan x="548.2" y="0" fill="#FFED00" font-family="'BernardMT-Condensed'" font-size="78px" letter-spacing="-1">d</tspan><tspan x="585.1" y="0" fill="#FFED00" font-family="'BernardMT-Condensed'" font-size="78px">.</tspan></text>
	<g display="inline">
		<defs>
			<rect id="SVGID_3_" x="-76.3" y="-143.7" width="841.9" height="595.3"/>
		</defs>
		<clipPath id="SVGID_4_">
			<use xlink:href="#SVGID_3_"  overflow="visible"/>
		</clipPath>
	</g>
	<text transform="matrix(1 0 0 1 147.0715 -91.2122)" display="inline"><tspan x="0" y="0" fill="#FFED00" font-family="'GoudyOldStyleT-Bold'" font-size="36px" letter-spacing="5">E</tspan><tspan x="23" y="0" fill="#FFED00" font-family="'GoudyOldStyleT-Bold'" font-size="36px" letter-spacing="5">S</tspan><tspan x="45.8" y="0" fill="#FFED00" font-family="'GoudyOldStyleT-Bold'" font-size="36px" letter-spacing="3">T</tspan><tspan x="67.5" y="0" fill="#FFED00" font-family="'GoudyOldStyleT-Bold'" font-size="36px" letter-spacing="5">A</tspan><tspan x="95" y="0" fill="#FFED00" font-family="'GoudyOldStyleT-Bold'" font-size="36px" letter-spacing="4">B</tspan><tspan x="118.5" y="0" fill="#FFED00" font-family="'GoudyOldStyleT-Bold'" font-size="36px" letter-spacing="4">L</tspan><tspan x="139.9" y="0" fill="#FFED00" font-family="'GoudyOldStyleT-Bold'" font-size="36px" letter-spacing="4">I</tspan><tspan x="153.3" y="0" fill="#FFED00" font-family="'GoudyOldStyleT-Bold'" font-size="36px" letter-spacing="4">S</tspan><tspan x="175.6" y="0" fill="#FFED00" font-family="'GoudyOldStyleT-Bold'" font-size="36px" letter-spacing="5">H</tspan><tspan x="204.2" y="0" fill="#FFED00" font-family="'GoudyOldStyleT-Bold'" font-size="36px" letter-spacing="4">E</tspan><tspan x="226.6" y="0" fill="#FFED00" font-family="'GoudyOldStyleT-Bold'" font-size="36px" letter-spacing="5">D</tspan><tspan x="255.6" y="0" fill="#FFED00" font-family="'GoudyOldStyleT-Bold'" font-size="36px" letter-spacing="5"> </tspan><tspan x="268.3" y="0" fill="#FFED00" font-family="'GoudyOldStyleT-Bold'" font-size="36px" letter-spacing="3">1</tspan><tspan x="290.1" y="0" fill="#FFED00" font-family="'GoudyOldStyleT-Bold'" font-size="36px" letter-spacing="4">9</tspan><tspan x="312.7" y="0" fill="#FFED00" font-family="'GoudyOldStyleT-Bold'" font-size="36px" letter-spacing="3">7</tspan><tspan x="334.4" y="0" fill="#FFED00" font-family="'GoudyOldStyleT-Bold'" font-size="36px">6</tspan></text>
	<g display="inline">
		<defs>
			<rect id="SVGID_5_" x="-76.3" y="-143.7" width="841.9" height="595.3"/>
		</defs>
		<clipPath id="SVGID_6_">
			<use xlink:href="#SVGID_5_"  overflow="visible"/>
		</clipPath>
		<path clip-path="url(#SVGID_6_)" fill="none" stroke="#000000" d="M100.7,111.6c0.7-0.6,2.1-0.9,4.2-0.9c2.7,0,4.8,0.9,6.5,2.7
			c1.7,1.8,2.5,4.1,2.5,7c0,2.3-0.7,4.2-2.2,5.7c-1.5,1.5-3.3,2.2-5.6,2.2c-1,0-2-0.2-3-0.5c-0.2-0.1-0.3-0.1-0.5-0.1
			c-0.5,0-0.7,0.3-0.7,0.8c0,0.5,0.7,1,2.1,1.3c1.4,0.4,3,0.6,4.8,0.6c3.3,0,6.2-1.1,8.5-3.2c2.3-2.2,3.5-4.8,3.5-7.9
			c0-2.9-1.1-5.3-3.3-7.4c-2.5-2.2-6.4-3.4-11.7-3.4c-0.9,0-1.8,0-2.9,0.1l-3.1,0.2c-0.8,0.1-1.9,0.1-3.2,0.1
			c-2.7,0-5.1-0.1-7.2-0.2c-0.7-0.1-1.1-0.1-1.3-0.1c-0.8,0-1.2,0.3-1.2,0.8c0,0.5,0.3,0.8,1,0.9c1.9,0.2,3.3,0.8,4.1,1.8
			s1.2,2.6,1.2,4.8v21.8c0,2.8-0.2,4.7-0.7,5.7c-0.5,1-1.4,1.7-2.9,2.1c-0.5,0.1-0.7,0.4-0.7,0.8c0,0.5,0.3,0.7,0.9,0.7
			c0.4,0,1,0,1.8-0.1c2.3-0.3,4.2-0.4,5.5-0.4l1.1,0l4.4,0.2c0.6,0,1.3,0,1.9,0.1c0.4,0,0.7,0.1,0.8,0.1c0.7,0,1.1-0.3,1.1-0.8
			c0-0.5-0.3-0.8-0.8-0.8l-1.2-0.1c-2.1-0.2-3.4-1-3.9-2.3c-0.5-1.1-0.7-3.5-0.7-7.1v-21.5C99.6,113.4,99.9,112.3,100.7,111.6z"/>
		<path clip-path="url(#SVGID_6_)" fill="none" stroke="#000000" d="M134.8,135.9l0.2,0.6v0.6l0,2.2c0,1.7-0.1,2.9-0.3,3.7
			c-0.2,0.7-0.5,1.3-1,1.6c-0.9,0.6-2,0.9-3.3,0.9c-2,0-3-1.2-3-3.7c0-1.5,0.7-2.9,2.2-4.2c1.5-1.3,3-1.8,4.6-1.7
			C134.5,135.7,134.7,135.8,134.8,135.9z M125.3,136.6c-2.6,1.4-3.9,3.5-3.9,6.5c0,1.6,0.5,2.9,1.4,3.9c0.9,0.9,2.2,1.4,3.8,1.4
			c2.3,0,5.2-1.1,8.8-3.4c1.1,2.2,2.5,3.2,4.2,3.2c0.8,0,1.6-0.2,2.2-0.5l1-0.6l1.1-0.6c0.7-0.4,1.1-0.9,1.1-1.3
			c0-0.3-0.1-0.4-0.4-0.4c-0.1,0-0.4,0.1-0.7,0.2c-0.3,0.1-0.7,0.2-1.2,0.2c-1.5,0-2.3-1-2.3-2.9c0-0.8,0.1-2.5,0.2-5
			c0.1-2.2,0.2-4,0.2-5.4c0-2.8-0.6-4.8-1.9-6c-1.6-1.5-4.1-2.3-7.3-2.3c-2.8,0-5.2,0.7-7.2,2.2c-0.9,0.6-1.5,1.6-1.7,2.8
			c-0.1,0.3-0.1,0.5-0.2,0.7c-0.1,0.3-0.1,0.5-0.1,0.6c0,0.7,0.3,1,1.1,1c2.9,0,4.4-0.6,4.4-1.9l-0.1-0.5c0-0.3-0.1-0.5-0.1-0.8
			c0-1.5,0.9-2.3,2.7-2.3c1.4,0,2.6,0.6,3.5,1.8c0.9,1.2,1.4,2.7,1.4,4.6c0,0.6-0.1,1.4-0.3,2.2C130.1,135,126.9,135.8,125.3,136.6z
			"/>
		<path clip-path="url(#SVGID_6_)" fill="none" stroke="#000000" d="M155.4,123.6l0-0.3c0-0.3-0.1-0.5-0.4-0.5
			c-0.1,0-0.3,0.1-0.5,0.2c-1.6,1.2-3.9,2.1-6.8,2.7c-1.2,0.3-1.7,0.6-1.7,1.1c0,0.2,0,0.3,0.1,0.4c0.1,0.2,0.4,0.2,0.7,0.2h0.7
			c0.8,0,1.4,0.3,1.7,0.8c0.3,0.6,0.5,1.6,0.5,3v9.6l0,1.2c0,0.8-0.1,1.7-0.4,2.4c-0.3,0.8-0.6,1.3-1.1,1.5l-1,0.5
			c-0.2,0.1-0.4,0.3-0.4,0.6c0,0.4,0.2,0.6,0.6,0.6c0.2,0,0.5,0,1-0.1c1.7-0.3,3.1-0.4,4.1-0.4c0.4,0,1.2,0.1,2.3,0.2l2.1,0.2
			c0.6,0.1,1,0.1,1.2,0.1c1.5,0,2.2-0.3,2.2-0.8c0-0.4-0.3-0.6-0.9-0.7c-1.6-0.1-2.6-0.5-3.2-1.3c-0.6-0.8-0.9-2.1-0.9-4v-16
			C155.4,124.2,155.4,123.8,155.4,123.6z M150.2,111.5c-1.1,1.3-1.7,2.2-1.7,2.6c0,0.2,0.2,0.6,0.5,1l1.2,1.4l1.3,1.6
			c0.2,0.2,0.5,0.3,0.8,0.3c0.4,0,1.1-0.6,2.2-1.9c1.1-1.3,1.6-2.1,1.6-2.6c0-0.3-0.2-0.6-0.5-1l-1.2-1.5c-1-1.3-1.7-1.9-2.1-1.9
			C152,109.4,151.3,110.1,150.2,111.5z"/>
		<path clip-path="url(#SVGID_6_)" fill="none" stroke="#000000" d="M186.1,126.5c-1.3-1.9-3.5-2.8-6.6-2.8c-2.8,0-5.1,1.1-6.9,3.2
			c-0.5,0.5-0.8,0.8-0.9,0.8c-0.2,0-0.3-0.1-0.4-0.4l-0.2-1.1l0-1.6l0.1-1.4c0-0.4-0.1-0.6-0.3-0.5c-0.1,0-0.2,0.1-0.4,0.2
			c-1.6,1.1-3.6,1.9-5.9,2.5c-1.4,0.3-2.2,0.6-2.5,0.7c-0.3,0.1-0.4,0.4-0.4,0.8c0,0.2,0,0.3,0.1,0.4c0.1,0.1,0.2,0.2,0.4,0.2h1.3
			c0.7,0,1.2,0.3,1.5,0.8c0.3,0.5,0.4,1.5,0.4,2.8l0,1.1v10l0,0.9c0,1.1-0.1,1.9-0.4,2.3c-0.3,0.4-0.9,0.8-1.8,1.2
			c-0.3,0.1-0.5,0.3-0.5,0.6c0,0.4,0.2,0.6,0.7,0.6c0.2,0,0.7,0,1.4-0.2c1.4-0.2,2.7-0.3,3.8-0.3c0.8,0,2.3,0.1,4.4,0.4
			c0.9,0.1,1.6,0.1,2.2,0.1c0.7,0,1-0.3,1-0.8c0-0.4-0.3-0.6-0.8-0.7c-1.5-0.1-2.6-0.6-3.3-1.4c-0.7-0.8-1-2.1-1-3.8v-9.4
			c0-1.4,0.5-2.5,1.5-3.4c1-0.9,2.2-1.3,3.8-1.3c1.8,0,3.2,0.8,4.2,2.3c1,1.5,1.5,3.5,1.5,6.1v6.7c0,1.4-0.1,2.5-0.4,3.1
			c-0.3,0.6-0.8,1-1.7,1.3c-0.4,0.2-0.7,0.4-0.7,0.7c0,0.4,0.2,0.6,0.6,0.6c0.3,0,0.7,0,1.1-0.1c1.1-0.2,2.5-0.3,4.3-0.3
			c0.5,0,1.1,0,2,0.1l1.8,0.2c0.5,0.1,0.9,0.1,1.2,0.1c1.3,0,2-0.3,2-0.9c0-0.4-0.3-0.6-0.9-0.7c-1.1-0.1-1.9-0.4-2.6-1
			c-0.5-0.4-0.8-0.8-0.9-1.3c-0.1-0.4-0.2-1.3-0.2-2.5v-5.7C188.1,131.4,187.4,128.3,186.1,126.5z"/>
		<path clip-path="url(#SVGID_6_)" fill="none" stroke="#000000" d="M207.1,127.2c0.8,0,1.3-0.5,1.6-1.5c0.1-0.6,0.2-1,0.3-1.3
			c0.1-0.2,0.2-0.5,0.2-0.6c0-0.3-0.1-0.5-0.5-0.5c-0.2,0-0.4,0.1-0.5,0.2l-0.7,0.5c-0.3,0.2-0.9,0.4-1.6,0.4h-4.1v-6.6
			c0-0.3-0.1-0.4-0.3-0.4c-0.3,0-0.7,0.4-1.3,1.4c-0.5,0.8-1.5,2-3,3.5c-1.5,1.5-2.7,2.6-3.5,3.1c-0.5,0.3-0.7,0.6-0.7,0.9
			c0,0.5,0.5,0.7,1.4,0.7h1.7v15.2c0,2,0.5,3.5,1.5,4.5c1,1,2.5,1.4,4.7,1.4c2.7,0,5.2-1,7.2-2.9l0.3-0.5l-0.1-0.3
			c-0.1-0.4-0.2-0.6-0.4-0.6c-0.1,0-0.2,0.1-0.5,0.2c-0.3,0.3-0.9,0.5-1.7,0.8c-0.8,0.3-1.5,0.4-2,0.4c-1.3,0-2.1-0.3-2.6-1
			c-0.5-0.7-0.8-1.8-0.8-3.5v-13.8H207.1z"/>
		<path clip-path="url(#SVGID_6_)" fill="none" stroke="#000000" d="M224.7,126.8c1.1,1.2,1.6,2.5,1.6,4c0,1-0.8,1.5-2.5,1.5
			c-0.3,0-1.2,0-2.9,0.1c-0.7,0-1.4,0.1-2,0.1c-1.2,0-1.9-0.1-2.2-0.2c-0.3-0.1-0.4-0.4-0.4-1c0-1.7,0.5-3.2,1.4-4.4
			c1-1.3,2.1-1.9,3.4-1.9C222.4,125.1,223.6,125.7,224.7,126.8z M214,127.4c-2.2,2.5-3.3,5.5-3.3,8.9c0,3.5,1,6.4,3.1,8.7
			c2.1,2.2,4.7,3.4,8,3.4c2.9,0,5.7-1.1,8.3-3.4c1.5-1.3,2.2-2.2,2.2-2.7c0-0.4-0.2-0.6-0.6-0.6c-0.2,0-0.3,0.1-0.5,0.2l-0.9,0.9
			c-1.4,1.4-3.3,2.1-5.7,2.1c-2.1,0-4-1-5.6-2.9c-1.6-1.9-2.4-4.1-2.4-6.6c0-0.5,0.1-0.9,0.3-1.1c0.2-0.1,0.5-0.2,1-0.2l1,0l2.8,0
			l5.3-0.1l1.7,0h0.6l1.3,0.1c1,0,1.5-0.4,1.5-1.1c0-1.9-0.9-3.9-2.7-5.8c-2.1-2.3-4.6-3.5-7.6-3.5
			C218.8,123.6,216.2,124.9,214,127.4z"/>
		<path clip-path="url(#SVGID_6_)" fill="none" stroke="#000000" d="M246.7,129c1.2,0,2.3,0.4,3.3,1.3l0.8,0.7
			c0.2,0.2,0.4,0.3,0.7,0.3c0.6,0,1.3-0.7,2.1-2.2c0.6-1.2,0.9-1.8,0.9-2c0-0.5-0.7-1.2-2-2.2c-1.3-1-2.2-1.5-2.9-1.5
			c-0.4,0-1.1,0.4-2.2,1.2c-1.1,0.8-1.8,1.6-2.3,2.3c-0.6,0.9-1,1.4-1.2,1.4c-0.2,0-0.3-0.2-0.4-0.4l0-0.3l0.1-1.8l0.1-1.6
			c0-0.4,0-0.7,0-0.8c0-0.4-0.1-0.6-0.4-0.6c-0.1,0-0.3,0-0.4,0.1l-1.1,0.7c-1.8,1.1-4.1,1.8-6.7,2.2c-0.5,0.1-0.8,0.3-0.8,0.8
			c0,0.4,0.2,0.6,0.7,0.6c1.2,0.1,1.9,0.4,2.3,0.8c0.3,0.4,0.5,1.3,0.5,2.7v10.1l0,1.2c0,2.4-0.7,3.9-2.2,4.2
			c-0.5,0.1-0.7,0.3-0.7,0.7c0,0.5,0.3,0.8,0.8,0.8c0.3,0,0.7,0,1-0.1l1.8-0.2c0.9-0.1,1.8-0.1,2.9-0.1c2,0,4,0.1,5.8,0.4
			c0.3,0.1,0.6,0.1,0.8,0.1c0.4,0,0.7-0.2,0.7-0.7c0-0.4-0.3-0.6-0.9-0.7c-2.8-0.4-4.2-2.1-4.2-5v-7.9
			C243.4,130.4,244.5,129,246.7,129z"/>
		<path clip-path="url(#SVGID_6_)" fill="none" stroke="#000000" d="M258.7,125.6c-1.6,1.3-2.4,3.1-2.4,5.3c0,1.8,0.5,3.3,1.4,4.3
			c0.9,1.1,2.6,2.1,5.1,3c2,0.8,3.4,1.6,4.1,2.3c0.7,0.7,1.1,1.6,1.1,2.8c0,1.1-0.4,2-1.1,2.7c-0.8,0.7-1.7,1.1-2.8,1.1
			c-2,0-3.6-1-4.8-2.9c-1-1.7-1.6-3.1-1.9-4.3c-0.1-0.5-0.3-0.8-0.6-0.8c-0.4,0-0.6,0.1-0.7,0.2c-0.1,0.1-0.1,0.4-0.1,0.8l0,1.4
			l0.1,3.1c0,0.4,0,0.8-0.1,1.1c0,0.3,0,0.6,0,0.7c0,0.5,0.2,0.7,0.6,0.8l1.3,0.2l2,0.5c1.7,0.4,3.1,0.6,4.3,0.6
			c2.2,0,4-0.8,5.5-2.3c1.5-1.5,2.2-3.4,2.2-5.7c0-1.8-0.5-3.3-1.4-4.5c-0.5-0.7-1.1-1.3-1.7-1.7c-0.6-0.4-1.7-0.9-3.4-1.6l-2-0.8
			c-2.2-0.9-3.3-2.2-3.3-3.7c0-0.9,0.4-1.6,1.1-2.3c0.7-0.6,1.6-1,2.6-1c2,0,3.7,1.2,5.1,3.6c0.7,1.2,1.2,1.9,1.5,1.9
			c0.4,0,0.6-0.2,0.6-0.5c0-0.1,0-0.2-0.1-0.3l-0.1-1l-0.1-1.8l-0.1-1.2c-0.1-0.5-0.5-0.9-1.2-1.1c-1.5-0.4-2.9-0.7-4.2-0.7
			C262.4,123.7,260.3,124.3,258.7,125.6z"/>
		<path clip-path="url(#SVGID_6_)" fill="none" stroke="#000000" d="M300.5,126c1.2,2.2,3.4,4.7,6.4,7.6c3,2.9,6.2,5.5,9.4,7.7
			c1,0.7,1.5,1.2,1.5,1.7c0,0.6-0.6,1.1-1.7,1.5c-1.1,0.4-2.4,0.6-4,0.6c-2.6,0-5.1-0.6-7.5-1.9c-2.4-1.3-4.5-3.1-6.3-5.4
			c-2.4-3.1-3.6-5.9-3.7-8.4c-0.1-1.5,0.5-2.7,1.8-3.8c1.1-1,1.9-1.4,2.4-1.4C299.2,124.3,299.8,124.9,300.5,126z M299.8,111.1
			c-1.8,1.7-2.6,3.7-2.6,6.2c0,1.6,0.3,3,0.8,4.2c0.2,0.4,0.3,0.7,0.3,0.9c0,0.4-0.4,0.8-1.3,1.2c-2.1,0.9-3.7,2.4-4.9,4.4
			c-1.2,2-1.8,4.1-1.8,6.5c0,4.1,1.5,7.4,4.5,9.9c3,2.5,7,3.8,11.9,3.8c3.7,0,7-0.6,9.9-1.9l2.5-1.1c0.5-0.2,0.9-0.3,1.2-0.3
			c0.3,0,0.7,0.1,1.2,0.4c3.4,1.6,6.4,2.4,9.2,2.4c1.7,0,3.6-0.4,5.7-1.1c2.1-0.7,3.1-1.4,3.2-2.1c0-0.4-0.2-0.5-0.7-0.5
			c-0.1,0-0.3,0-0.5,0.1l-1.6,0.5c-0.6,0.2-1.3,0.2-2.2,0.2c-1.8,0-3.9-0.7-6.2-2c-2.3-1.3-3.4-2.5-3.5-3.6c0-0.3,0.5-1.6,1.5-3.9
			c1-2.3,1.5-4.3,1.5-6c0-0.8,0.1-1.3,0.2-1.6c0.2-0.3,0.6-0.5,1.3-0.7c0.4-0.2,0.7-0.4,0.7-0.8c0-0.5-0.3-0.8-0.9-0.8
			c-0.2,0-0.4,0-0.6,0.1l-1.1,0.2c-0.5,0.1-1.4,0.1-2.8,0.1c-1.2,0-2.8-0.1-4.8-0.2c-0.4,0-0.7,0-1,0c-0.5,0-0.8,0.2-0.8,0.7
			c0,0.5,0.7,0.8,2.1,1c1.7,0.1,2.9,0.6,3.6,1.4c0.7,0.8,1,2.1,1,3.8c0,1.2-0.3,2.4-0.8,3.7c-0.6,1.3-1.1,1.9-1.7,2
			c-0.9,0.1-3.9-2.3-9-7.2c-3.5-3.3-6.2-6.4-8.2-9.3c-2-2.9-2.9-5.3-2.9-7.1c0-1.1,0.4-2,1.3-2.7c0.8-0.8,1.9-1.1,3.1-1.1
			c1.9,0,3.8,0.8,5.5,2.4c1.7,1.6,2.9,3.6,3.6,6c0.2,0.9,0.6,1.3,1.1,1.3s0.7-0.2,0.7-0.6c0-0.1,0-0.3-0.1-0.5
			c-0.1-0.3-0.3-1.2-0.5-2.6c-0.2-1.4-0.3-2.4-0.3-2.9c0-0.1,0-0.6,0.1-1.5c0-0.4,0-0.7,0-0.9c0-0.9-0.2-1.3-0.7-1.3
			c-0.2,0-0.3,0-0.5,0.1l-0.6,0.4c-0.2,0.2-0.5,0.2-0.8,0.2c-0.3,0-1.2-0.3-2.7-0.8c-1.9-0.7-3.6-1-5-1
			C303.7,108.7,301.6,109.5,299.8,111.1z"/>
		<path clip-path="url(#SVGID_6_)" fill="none" stroke="#000000" d="M368.3,111.3c0.7-0.5,2.1-0.8,4.1-0.8c4.9,0,8.9,1.7,11.9,5.1
			c3.1,3.4,4.6,7.8,4.6,13.2c0,5.1-1.3,9.2-3.8,12.3c-2.6,3-6,4.5-10.4,4.5c-4,0-6.4-1.1-7-3.3l-0.3-2.6v-24.8
			C367.4,112.9,367.7,111.7,368.3,111.3z M360.9,141.1c0,1.8-0.2,3.1-0.6,3.8c-0.4,0.7-1.2,1.2-2.4,1.4c-0.5,0.1-0.7,0.3-0.7,0.7
			c0,0.6,0.2,0.8,0.7,0.8c0.3,0,0.9-0.1,1.8-0.2c1.1-0.2,3.4-0.3,6.7-0.3c1.4,0,2.8,0,4.2,0.1c2.4,0.2,4,0.2,4.8,0.2
			c4.8,0,9.1-1.5,12.9-4.6c5.2-4.2,7.8-9.7,7.8-16.7c0-5.4-1.9-9.8-5.8-13.1c-3.9-3.3-9-4.9-15.4-4.9c-1.6,0-3.9,0.1-6.7,0.4
			c-2.1,0.2-3.7,0.3-4.9,0.4c-0.8,0-1.7,0.1-2.6,0.1l-4.3-0.1c-0.8,0-1.4,0.1-1.6,0.2c-0.2,0.1-0.4,0.3-0.4,0.7
			c0,0.5,0.3,0.7,0.9,0.7c1.8,0,3.2,0.5,4.2,1.5c1,1,1.5,2.4,1.5,4.2V141.1z"/>
		<path clip-path="url(#SVGID_6_)" fill="none" stroke="#000000" d="M412.7,126.8c1.1,1.2,1.6,2.5,1.6,4c0,1-0.8,1.5-2.5,1.5
			c-0.3,0-1.2,0-2.9,0.1c-0.7,0-1.4,0.1-2,0.1c-1.2,0-1.9-0.1-2.2-0.2c-0.3-0.1-0.4-0.4-0.4-1c0-1.7,0.5-3.2,1.4-4.4
			c1-1.3,2.1-1.9,3.4-1.9C410.5,125.1,411.7,125.7,412.7,126.8z M402.1,127.4c-2.2,2.5-3.3,5.5-3.3,8.9c0,3.5,1,6.4,3.1,8.7
			c2.1,2.2,4.7,3.4,8,3.4c2.9,0,5.7-1.1,8.3-3.4c1.5-1.3,2.2-2.2,2.2-2.7c0-0.4-0.2-0.6-0.6-0.6c-0.2,0-0.3,0.1-0.5,0.2l-0.9,0.9
			c-1.4,1.4-3.3,2.1-5.7,2.1c-2.1,0-4-1-5.6-2.9c-1.6-1.9-2.4-4.1-2.4-6.6c0-0.5,0.1-0.9,0.3-1.1c0.2-0.1,0.5-0.2,1-0.2l1,0l2.8,0
			l5.3-0.1l1.7,0h0.6l1.3,0.1c1,0,1.5-0.4,1.5-1.1c0-1.9-0.9-3.9-2.7-5.8c-2.1-2.3-4.6-3.5-7.6-3.5
			C406.9,123.6,404.3,124.9,402.1,127.4z"/>
		<path clip-path="url(#SVGID_6_)" fill="none" stroke="#000000" d="M426.7,127.5c-2.6,2.6-3.9,5.8-3.9,9.6c0,3.2,1,5.9,3.1,8
			c2.1,2.1,4.7,3.2,7.8,3.2c2.8,0,5.5-0.9,8.1-2.8c1.4-1,2.1-1.9,2.1-2.5c0-0.3-0.2-0.5-0.5-0.5l-0.3,0.2c-2.2,1.5-4.4,2.3-6.4,2.3
			c-2.4,0-4.4-1.1-5.9-3.3c-1.6-2.2-2.3-5-2.3-8.5c0-2.2,0.5-4.1,1.6-5.6c1.1-1.5,2.4-2.2,3.9-2.2c1.2,0,2.3,0.5,3.2,1.5
			s1.5,2.2,1.6,3.5c0.1,0.7,0.3,1.1,0.8,1.1c0.1,0,0.3-0.1,0.5-0.2l1.2-0.7c1.7-0.9,2.6-1.7,2.6-2.3c0-0.6-0.3-1.4-1-2.4
			c-1.1-1.5-3.2-2.3-6.2-2.3C432.6,123.7,429.3,125,426.7,127.5z"/>
		<path clip-path="url(#SVGID_6_)" fill="none" stroke="#000000" d="M463.5,129.3c1.7,2.7,2.5,5.9,2.5,9.8c0,2.3-0.6,4.2-1.7,5.6
			c-1.1,1.5-2.6,2.2-4.3,2.2c-2.3,0-4.3-1.3-6-3.8c-1.7-2.6-2.5-5.6-2.5-9.2c0-2.6,0.5-4.7,1.6-6.2c1.1-1.5,2.5-2.3,4.3-2.3
			C459.9,125.3,461.9,126.6,463.5,129.3z M449.6,127.5c-2.6,2.5-3.9,5.5-3.9,9.1c0,3.4,1.2,6.2,3.5,8.5c2.4,2.2,5.3,3.4,8.8,3.4
			c3.8,0,6.9-1.2,9.4-3.6c2.5-2.4,3.8-5.4,3.8-9c0-3.5-1.2-6.4-3.5-8.6c-2.3-2.3-5.3-3.4-8.8-3.4
			C455.3,123.7,452.2,124.9,449.6,127.5z"/>
		<path clip-path="url(#SVGID_6_)" fill="none" stroke="#000000" d="M485.8,129c1.2,0,2.3,0.4,3.3,1.3l0.8,0.7
			c0.2,0.2,0.4,0.3,0.7,0.3c0.6,0,1.3-0.7,2.1-2.2c0.6-1.2,0.9-1.8,0.9-2c0-0.5-0.7-1.2-2-2.2c-1.3-1-2.2-1.5-2.9-1.5
			c-0.4,0-1.1,0.4-2.2,1.2c-1.1,0.8-1.8,1.6-2.3,2.3c-0.6,0.9-1,1.4-1.2,1.4c-0.2,0-0.3-0.2-0.4-0.4l0-0.3l0.1-1.8l0.1-1.6
			c0-0.4,0-0.7,0-0.8c0-0.4-0.1-0.6-0.4-0.6c-0.1,0-0.3,0-0.4,0.1l-1.1,0.7c-1.8,1.1-4.1,1.8-6.7,2.2c-0.5,0.1-0.8,0.3-0.8,0.8
			c0,0.4,0.2,0.6,0.7,0.6c1.2,0.1,1.9,0.4,2.3,0.8c0.3,0.4,0.5,1.3,0.5,2.7v10.1l0,1.2c0,2.4-0.7,3.9-2.2,4.2
			c-0.5,0.1-0.7,0.3-0.7,0.7c0,0.5,0.3,0.8,0.8,0.8c0.3,0,0.7,0,1-0.1l1.8-0.2c0.9-0.1,1.8-0.1,2.9-0.1c2,0,4,0.1,5.8,0.4
			c0.3,0.1,0.6,0.1,0.8,0.1c0.4,0,0.7-0.2,0.7-0.7c0-0.4-0.3-0.6-0.9-0.7c-2.8-0.4-4.2-2.1-4.2-5v-7.9
			C482.5,130.4,483.6,129,485.8,129z"/>
		<path clip-path="url(#SVGID_6_)" fill="none" stroke="#000000" d="M508.4,135.9l0.2,0.6v0.6l0,2.2c0,1.7-0.1,2.9-0.3,3.7
			c-0.2,0.7-0.5,1.3-1,1.6c-0.9,0.6-2,0.9-3.3,0.9c-2,0-3-1.2-3-3.7c0-1.5,0.7-2.9,2.2-4.2c1.5-1.3,3-1.8,4.6-1.7
			C508.1,135.7,508.3,135.8,508.4,135.9z M498.9,136.6c-2.6,1.4-3.9,3.5-3.9,6.5c0,1.6,0.5,2.9,1.4,3.9s2.2,1.4,3.8,1.4
			c2.3,0,5.2-1.1,8.8-3.4c1.1,2.2,2.5,3.2,4.2,3.2c0.8,0,1.6-0.2,2.2-0.5l1-0.6l1.1-0.6c0.7-0.4,1.1-0.9,1.1-1.3
			c0-0.3-0.1-0.4-0.4-0.4c-0.1,0-0.3,0.1-0.7,0.2c-0.3,0.1-0.7,0.2-1.2,0.2c-1.5,0-2.3-1-2.3-2.9c0-0.8,0.1-2.5,0.2-5
			c0.1-2.2,0.2-4,0.2-5.4c0-2.8-0.6-4.8-1.9-6c-1.6-1.5-4.1-2.3-7.3-2.3c-2.8,0-5.2,0.7-7.3,2.2c-0.9,0.6-1.5,1.6-1.7,2.8
			c-0.1,0.3-0.1,0.5-0.2,0.7c-0.1,0.3-0.1,0.5-0.1,0.6c0,0.7,0.3,1,1.1,1c2.9,0,4.4-0.6,4.4-1.9l-0.1-0.5c0-0.3-0.1-0.5-0.1-0.8
			c0-1.5,0.9-2.3,2.7-2.3c1.4,0,2.6,0.6,3.5,1.8c0.9,1.2,1.4,2.7,1.4,4.6c0,0.6-0.1,1.4-0.3,2.2C503.7,135,500.5,135.8,498.9,136.6z
			"/>
		<path clip-path="url(#SVGID_6_)" fill="none" stroke="#000000" d="M532.7,127.2c0.8,0,1.3-0.5,1.6-1.5c0.1-0.6,0.2-1,0.3-1.3
			c0.1-0.2,0.2-0.5,0.2-0.6c0-0.3-0.1-0.5-0.5-0.5c-0.2,0-0.4,0.1-0.5,0.2l-0.7,0.5c-0.3,0.2-0.9,0.4-1.6,0.4h-4.1v-6.6
			c0-0.3-0.1-0.4-0.3-0.4c-0.3,0-0.7,0.4-1.3,1.4c-0.5,0.8-1.5,2-3,3.5c-1.5,1.5-2.7,2.6-3.5,3.1c-0.5,0.3-0.7,0.6-0.7,0.9
			c0,0.5,0.5,0.7,1.4,0.7h1.7v15.2c0,2,0.5,3.5,1.5,4.5c1,1,2.5,1.4,4.7,1.4c2.7,0,5.2-1,7.2-2.9l0.3-0.5l-0.1-0.3
			c-0.1-0.4-0.2-0.6-0.4-0.6c-0.1,0-0.2,0.1-0.5,0.2c-0.3,0.3-0.9,0.5-1.7,0.8c-0.8,0.3-1.5,0.4-2,0.4c-1.3,0-2.1-0.3-2.6-1
			c-0.5-0.7-0.8-1.8-0.8-3.5v-13.8H532.7z"/>
		<path clip-path="url(#SVGID_6_)" fill="none" stroke="#000000" d="M554,129.3c1.7,2.7,2.5,5.9,2.5,9.8c0,2.3-0.6,4.2-1.7,5.6
			c-1.1,1.5-2.6,2.2-4.3,2.2c-2.3,0-4.3-1.3-6-3.8c-1.7-2.6-2.5-5.6-2.5-9.2c0-2.6,0.5-4.7,1.6-6.2c1.1-1.5,2.5-2.3,4.3-2.3
			C550.3,125.3,552.3,126.6,554,129.3z M540.1,127.5c-2.6,2.5-3.9,5.5-3.9,9.1c0,3.4,1.2,6.2,3.5,8.5c2.4,2.2,5.3,3.4,8.8,3.4
			c3.8,0,6.9-1.2,9.4-3.6c2.5-2.4,3.8-5.4,3.8-9c0-3.5-1.2-6.4-3.5-8.6c-2.3-2.3-5.3-3.4-8.8-3.4
			C545.8,123.7,542.6,124.9,540.1,127.5z"/>
		<path clip-path="url(#SVGID_6_)" fill="none" stroke="#000000" d="M576.2,129c1.2,0,2.3,0.4,3.3,1.3l0.8,0.7
			c0.2,0.2,0.4,0.3,0.7,0.3c0.6,0,1.3-0.7,2.1-2.2c0.6-1.2,0.9-1.8,0.9-2c0-0.5-0.7-1.2-2-2.2c-1.3-1-2.2-1.5-2.9-1.5
			c-0.4,0-1.1,0.4-2.2,1.2c-1.1,0.8-1.8,1.6-2.3,2.3c-0.6,0.9-1,1.4-1.2,1.4c-0.2,0-0.3-0.2-0.4-0.4l0-0.3l0.1-1.8l0.1-1.6
			c0-0.4,0-0.7,0-0.8c0-0.4-0.1-0.6-0.4-0.6c-0.1,0-0.3,0-0.4,0.1l-1.1,0.7c-1.8,1.1-4.1,1.8-6.7,2.2c-0.5,0.1-0.8,0.3-0.8,0.8
			c0,0.4,0.2,0.6,0.7,0.6c1.2,0.1,1.9,0.4,2.3,0.8c0.3,0.4,0.5,1.3,0.5,2.7v10.1l0,1.2c0,2.4-0.7,3.9-2.2,4.2
			c-0.5,0.1-0.7,0.3-0.7,0.7c0,0.5,0.3,0.8,0.8,0.8c0.3,0,0.7,0,1-0.1l1.8-0.2c0.9-0.1,1.8-0.1,2.9-0.1c2,0,4,0.1,5.8,0.4
			c0.3,0.1,0.6,0.1,0.8,0.1c0.4,0,0.7-0.2,0.7-0.7c0-0.4-0.3-0.6-0.9-0.7c-2.8-0.4-4.2-2.1-4.2-5v-7.9
			C572.9,130.4,574,129,576.2,129z"/>
		<path clip-path="url(#SVGID_6_)" fill="none" stroke="#000000" d="M588.3,125.6c-1.6,1.3-2.4,3.1-2.4,5.3c0,1.8,0.5,3.3,1.4,4.3
			c0.9,1.1,2.6,2.1,5.1,3c2,0.8,3.4,1.6,4.1,2.3c0.7,0.7,1.1,1.6,1.1,2.8c0,1.1-0.4,2-1.1,2.7c-0.8,0.7-1.7,1.1-2.8,1.1
			c-2,0-3.6-1-4.8-2.9c-1-1.7-1.6-3.1-1.9-4.3c-0.1-0.5-0.3-0.8-0.6-0.8c-0.4,0-0.6,0.1-0.7,0.2c-0.1,0.1-0.1,0.4-0.1,0.8l0,1.4
			l0.1,3.1c0,0.4,0,0.8-0.1,1.1c0,0.3,0,0.6,0,0.7c0,0.5,0.2,0.7,0.6,0.8l1.3,0.2l2,0.5c1.7,0.4,3.1,0.6,4.3,0.6
			c2.2,0,4-0.8,5.5-2.3c1.5-1.5,2.2-3.4,2.2-5.7c0-1.8-0.5-3.3-1.4-4.5c-0.5-0.7-1.1-1.3-1.7-1.7c-0.6-0.4-1.7-0.9-3.4-1.6l-2-0.8
			c-2.2-0.9-3.3-2.2-3.3-3.7c0-0.9,0.4-1.6,1.1-2.3c0.7-0.6,1.6-1,2.6-1c2,0,3.7,1.2,5.1,3.6c0.7,1.2,1.2,1.9,1.5,1.9
			c0.4,0,0.6-0.2,0.6-0.5c0-0.1,0-0.2-0.1-0.3l-0.1-1l-0.1-1.8l-0.1-1.2c-0.1-0.5-0.5-0.9-1.2-1.1c-1.5-0.4-2.9-0.7-4.2-0.7
			C592,123.7,589.8,124.3,588.3,125.6z"/>
	</g>
	<text transform="matrix(1 0 0 1 57.8259 -37.6333)" display="inline"><tspan x="0" y="0" fill="#FFED00" font-family="'GoudyOldStyleT-Bold'" font-size="58px" letter-spacing="-2">P</tspan><tspan x="28.5" y="0" fill="#FFED00" font-family="'GoudyOldStyleT-Bold'" font-size="58px">a</tspan><tspan x="56.4" y="0" fill="#FFED00" font-family="'GoudyOldStyleT-Bold'" font-size="58px">i</tspan><tspan x="69.9" y="0" fill="#FFED00" font-family="'GoudyOldStyleT-Bold'" font-size="58px" letter-spacing="-1">n</tspan><tspan x="100.2" y="0" fill="#FFED00" font-family="'GoudyOldStyleT-Bold'" font-size="58px">t</tspan><tspan x="118.6" y="0" fill="#FFED00" font-family="'GoudyOldStyleT-Bold'" font-size="58px" letter-spacing="-1">e</tspan><tspan x="146.3" y="0" fill="#FFED00" font-family="'GoudyOldStyleT-Bold'" font-size="58px">r</tspan><tspan x="165.2" y="0" fill="#FFED00" font-family="'GoudyOldStyleT-Bold'" font-size="58px">s &amp; </tspan><tspan x="247.9" y="0" fill="#FFED00" font-family="'GoudyOldStyleT-Bold'" font-size="58px" letter-spacing="-1">D</tspan><tspan x="285.5" y="0" fill="#FFED00" font-family="'GoudyOldStyleT-Bold'" font-size="58px">e</tspan><tspan x="313.9" y="0" fill="#FFED00" font-family="'GoudyOldStyleT-Bold'" font-size="58px">c</tspan><tspan x="339.1" y="0" fill="#FFED00" font-family="'GoudyOldStyleT-Bold'" font-size="58px" letter-spacing="-1">o</tspan><tspan x="369.2" y="0" fill="#FFED00" font-family="'GoudyOldStyleT-Bold'" font-size="58px">r</tspan><tspan x="387.8" y="0" fill="#FFED00" font-family="'GoudyOldStyleT-Bold'" font-size="58px" letter-spacing="-1">a</tspan><tspan x="414.6" y="0" fill="#FFED00" font-family="'GoudyOldStyleT-Bold'" font-size="58px">t</tspan><tspan x="432.8" y="0" fill="#FFED00" font-family="'GoudyOldStyleT-Bold'" font-size="58px" letter-spacing="-1">o</tspan><tspan x="462.9" y="0" fill="#FFED00" font-family="'GoudyOldStyleT-Bold'" font-size="58px">r</tspan><tspan x="481.9" y="0" fill="#FFED00" font-family="'GoudyOldStyleT-Bold'" font-size="58px">s</tspan></text>
</g>
<g id="Layer_2">
	<g>
		<path fill="#FFED00" d="M14.4,24.7c0.4-0.7,1.3-1,2.7-1c3,0,5.8,0.3,8.2,0.9c4.2,1.1,6.2,3.9,6.2,8.6c0,2.4-0.6,4.4-1.9,6.1
			c-1.6,2-4.5,3.1-8.7,3.1c-4.3,0-6.6-1.4-6.8-4.3l-0.2-2.5l-0.1-1.1v-4.9C13.8,27,14,25.4,14.4,24.7z M14.7,6.2
			c0.6-0.6,1.8-0.9,3.6-0.9c3.1,0,5.6,0.9,7.5,2.7c1.9,1.8,2.8,4.2,2.8,7.2c0,3.7-1.7,5.7-5.1,6.1l-1.9,0.1l-4.1-0.1
			c-1.4,0-2.4-0.2-2.9-0.7c-0.6-0.5-0.8-1.3-0.8-2.5V9.6C13.8,7.9,14.1,6.8,14.7,6.2z M6.9,37c0,3.7-1.2,5.8-3.6,6.2
			c-0.5,0.1-0.8,0.4-0.8,0.8c0,0.5,0.3,0.8,0.9,0.8c0.6,0,1.2,0,1.9-0.1c2.2-0.2,4.8-0.4,7.8-0.4l4.7,0.1l6.1,0.2
			c4.5,0,8.1-1.1,10.7-3.4c2.6-2.3,4-5.4,4-9.3c0-2.6-0.7-4.7-2.2-6.5c-1.4-1.7-3.4-2.8-5.9-3.3c-0.8-0.1-1.2-0.4-1.2-0.7
			c0-0.2,0.4-0.5,1.1-0.8c3.2-1.4,4.8-3.8,4.8-7.3c0-3-1.3-5.5-3.8-7.3s-6-2.7-10.2-2.7c-1.6,0-3.6,0.1-5.9,0.3
			C11.4,3.8,8.8,4,7.4,4C6.9,4,5.7,4,3.8,3.9L1.6,3.8l-0.7,0C0.3,3.7,0,4,0,4.6c0,0.5,0.2,0.8,0.7,0.9L2,5.6C5.3,6,6.9,8.2,6.9,12.2
			V37z"/>
		<path fill="#FFED00" d="M67.5,18.8c0-0.4-0.1-0.6-0.4-0.6c-0.2,0-0.4,0.1-0.6,0.1c-1.3,0.5-3.7,0.7-7.2,0.7
			c-1.2,0-1.8,0.3-1.8,0.9c0,0.4,0.3,0.7,0.9,0.7c1.4,0.2,2.3,0.5,2.6,0.8c0.3,0.4,0.5,1.4,0.5,3.1v11.1c0,1.9-0.5,3.4-1.4,4.4
			c-0.9,1-2.3,1.6-4,1.6c-2.2,0-3.7-0.7-4.4-2c-0.7-1.4-1.1-4.1-1.1-8.1c0-5.3,0.1-9,0.3-11.1c0-0.6,0.1-1.1,0.1-1.6
			c0-0.5-0.2-0.7-0.5-0.7c-0.3,0-0.7,0.1-1.3,0.2c-1.2,0.4-2.6,0.6-4.2,0.6c-1.7,0-2.8,0.1-3.4,0.2c-0.6,0.1-0.9,0.4-0.9,0.8
			c0,0.5,0.2,0.8,0.8,0.8l1.2,0.1c1.2,0.1,1.8,0.8,1.8,2.2c0,0.4,0,0.9,0,1.4c-0.2,3.1-0.2,6.8-0.2,11c0,3.2,0.7,5.6,2.2,7.2
			c1.5,1.6,3.7,2.4,6.6,2.4c2.6,0,4.8-1,6.6-2.9l1.1-1.1c0.2-0.2,0.4-0.4,0.5-0.4c0.3,0,0.4,0.3,0.4,0.9c0,0.2,0,0.5-0.1,0.9
			c0,0.3-0.1,0.6-0.1,1c0,0.7,0.2,1.1,0.7,1.1c0.2,0,0.3,0,0.5-0.1c1.6-0.4,3-0.6,4.3-0.7c0.5,0,1.1-0.1,1.9-0.1h1.4
			c1.4,0,2-0.4,2-1.1c0-0.3-0.2-0.5-0.5-0.7c-0.1,0-0.3-0.1-0.5-0.1l-0.7,0c-1.4,0-2.2-0.2-2.6-0.7c-0.3-0.4-0.5-1.6-0.5-3.5V19.5
			L67.5,18.8z"/>
		<path fill="#FFED00" d="M76.9,23.2c-2.7,2.7-4.1,6.1-4.1,10.2c0,3.4,1.1,6.2,3.3,8.5c2.2,2.2,4.9,3.4,8.2,3.4c3,0,5.8-1,8.5-3
			c1.5-1.1,2.2-2,2.2-2.7c0-0.4-0.2-0.5-0.5-0.5l-0.4,0.2c-2.3,1.6-4.6,2.4-6.8,2.4c-2.5,0-4.6-1.2-6.3-3.5
			c-1.6-2.3-2.5-5.3-2.5-8.9c0-2.3,0.6-4.3,1.7-5.9c1.1-1.6,2.5-2.4,4.1-2.4c1.3,0,2.4,0.5,3.4,1.6c1,1,1.5,2.3,1.6,3.7
			c0.1,0.8,0.4,1.1,0.9,1.1c0.1,0,0.3-0.1,0.5-0.2l1.3-0.7c1.8-1,2.7-1.8,2.7-2.4c0-0.7-0.4-1.5-1.1-2.5c-1.2-1.6-3.4-2.4-6.6-2.4
			C83.1,19.2,79.6,20.5,76.9,23.2z"/>
		<path fill="#FFED00" d="M110.6,22.6c2.1,0,3.7,0.9,4.9,2.7c0.9,1.3,1.3,3.7,1.3,7v6.2c0,1.6-0.1,2.7-0.4,3.3
			c-0.3,0.6-0.9,1.1-1.8,1.5c-0.4,0.1-0.5,0.4-0.5,0.6c0,0.4,0.2,0.7,0.7,0.7c0.1,0,0.3,0,0.6-0.1c1.5-0.2,3.4-0.4,5.5-0.4
			c1.1,0,2.3,0.1,3.7,0.3l1,0.1l1.3-0.1c0.6,0,0.9-0.2,0.9-0.6s-0.3-0.6-1-0.7c-1.1-0.1-1.9-0.3-2.5-0.8c-0.6-0.4-1-0.9-1.1-1.4
			c-0.1-0.5-0.2-1.6-0.2-3.2l0-1.2v-5c0-4.1-0.6-7.1-1.8-8.9c-1.7-2.4-4-3.5-7.1-3.5c-2.8,0-5.4,1.4-7.9,4.2l-0.3,0.2
			c-0.1,0-0.2-0.2-0.2-0.5V10c0-2.7,0.1-5,0.3-7c0.1-0.7,0.1-1.2,0.1-1.5c0-0.4-0.2-0.6-0.5-0.6c-0.3,0-0.9,0.3-1.9,0.8
			c-1.7,1-3.5,1.7-5.4,2.1c-1.2,0.3-2,0.5-2.2,0.6c-0.3,0.1-0.4,0.4-0.4,0.7c0,0.4,0.2,0.6,0.6,0.6c1.2,0.2,1.9,0.4,2.3,0.7
			c0.4,0.3,0.7,0.8,0.9,1.5l0.1,1.4v29.1c0,2.4-0.8,3.9-2.4,4.5c-0.4,0.1-0.6,0.3-0.6,0.6c0,0.5,0.4,0.8,1.2,0.8c0.4,0,1,0,1.8-0.1
			c2.1-0.2,3.6-0.4,4.5-0.4c1.5,0,3,0.1,4.4,0.4c0.5,0.1,0.9,0.2,1.2,0.2c0.6,0,0.8-0.2,0.9-0.7c0-0.4-0.2-0.6-0.6-0.7l-1.3-0.4
			c-1.2-0.3-1.9-0.8-2.4-1.5c-0.4-0.7-0.6-1.8-0.6-3.3l0-0.9V25.9C106.6,23.7,108.3,22.6,110.6,22.6z"/>
		<path fill="#FFED00" d="M143.7,32l0.2,0.7v0.6l0,2.3c0,1.8-0.1,3.1-0.3,3.9c-0.2,0.8-0.6,1.3-1.1,1.6c-1,0.6-2.1,0.9-3.4,0.9
			c-2.1,0-3.2-1.3-3.2-3.9c0-1.6,0.8-3.1,2.3-4.4c1.6-1.3,3.2-1.9,4.9-1.8C143.4,31.9,143.6,31.9,143.7,32z M133.7,32.8
			c-2.7,1.4-4.1,3.7-4.1,6.9c0,1.7,0.5,3.1,1.4,4.1c1,1,2.3,1.5,4,1.5c2.4,0,5.5-1.2,9.2-3.6c1.2,2.3,2.7,3.4,4.4,3.4
			c0.9,0,1.6-0.2,2.4-0.6l1-0.6l1.2-0.6c0.8-0.4,1.2-0.9,1.2-1.4c0-0.3-0.1-0.4-0.4-0.4c-0.1,0-0.4,0.1-0.7,0.2
			c-0.3,0.1-0.7,0.2-1.3,0.2c-1.6,0-2.4-1-2.4-3.1c0-0.9,0.1-2.6,0.2-5.2c0.1-2.3,0.2-4.2,0.2-5.7c0-3-0.7-5.1-2-6.3
			c-1.7-1.6-4.3-2.4-7.7-2.4c-3,0-5.5,0.8-7.6,2.3c-1,0.7-1.6,1.7-1.8,2.9c-0.1,0.3-0.1,0.6-0.2,0.8c-0.1,0.3-0.1,0.5-0.1,0.7
			c0,0.7,0.3,1,1.1,1c3.1,0,4.6-0.7,4.6-2l-0.1-0.6c0-0.3-0.1-0.6-0.1-0.9c0-1.6,1-2.4,2.9-2.4c1.5,0,2.7,0.6,3.7,1.9
			c1,1.3,1.4,2.9,1.4,4.9c0,0.7-0.1,1.4-0.3,2.3C138.7,31.1,135.4,31.9,133.7,32.8z"/>
		<path fill="#FFED00" d="M180.9,22.1c-1.4-2-3.7-2.9-6.9-2.9c-3,0-5.4,1.1-7.2,3.3c-0.5,0.6-0.8,0.8-1,0.8c-0.2,0-0.3-0.1-0.4-0.4
			l-0.2-1.1l0-1.7l0.1-1.5c0-0.4-0.1-0.6-0.4-0.6c-0.1,0-0.2,0.1-0.4,0.2c-1.7,1.2-3.8,2-6.3,2.6c-1.5,0.4-2.3,0.6-2.6,0.8
			c-0.3,0.1-0.4,0.4-0.4,0.8c0,0.2,0,0.3,0.1,0.4c0.1,0.1,0.2,0.2,0.4,0.2h1.4c0.8,0,1.3,0.3,1.6,0.8c0.3,0.5,0.4,1.5,0.4,3l0,1.2
			v10.5l0,1c0,1.2-0.1,2-0.4,2.5c-0.3,0.4-0.9,0.9-1.9,1.2c-0.3,0.1-0.5,0.3-0.5,0.6c0,0.4,0.2,0.6,0.7,0.6c0.3,0,0.7-0.1,1.5-0.2
			c1.5-0.2,2.9-0.3,4-0.3c0.9,0,2.4,0.1,4.7,0.4c0.9,0.1,1.7,0.1,2.4,0.1c0.7,0,1-0.3,1-0.8c0-0.4-0.3-0.6-0.8-0.7
			c-1.6-0.1-2.8-0.6-3.5-1.5c-0.7-0.8-1-2.2-1-4v-10c0-1.5,0.5-2.7,1.5-3.6c1-0.9,2.4-1.4,4-1.4c1.9,0,3.3,0.8,4.4,2.4
			c1.1,1.6,1.6,3.7,1.6,6.4v7c0,1.5-0.1,2.6-0.4,3.2c-0.3,0.6-0.9,1.1-1.8,1.4c-0.5,0.2-0.7,0.4-0.7,0.7c0,0.4,0.2,0.7,0.7,0.7
			c0.3,0,0.7,0,1.2-0.1c1.1-0.2,2.7-0.4,4.5-0.4c0.5,0,1.2,0,2.1,0.1l1.9,0.2c0.6,0.1,1,0.1,1.3,0.1c1.4,0,2.1-0.3,2.1-0.9
			c0-0.4-0.3-0.6-0.9-0.7c-1.1-0.1-2-0.5-2.7-1c-0.5-0.4-0.8-0.9-1-1.3c-0.1-0.5-0.2-1.3-0.2-2.6v-6
			C182.9,27.3,182.2,24.1,180.9,22.1z"/>
		<path fill="#FFED00" d="M203.8,32l0.2,0.7v0.6l0,2.3c0,1.8-0.1,3.1-0.3,3.9c-0.2,0.8-0.6,1.3-1.1,1.6c-1,0.6-2.1,0.9-3.4,0.9
			c-2.1,0-3.2-1.3-3.2-3.9c0-1.6,0.8-3.1,2.3-4.4c1.6-1.3,3.2-1.9,4.9-1.8C203.5,31.9,203.7,31.9,203.8,32z M193.8,32.8
			c-2.7,1.4-4.1,3.7-4.1,6.9c0,1.7,0.5,3.1,1.4,4.1c1,1,2.3,1.5,4,1.5c2.4,0,5.5-1.2,9.2-3.6c1.2,2.3,2.7,3.4,4.4,3.4
			c0.9,0,1.6-0.2,2.4-0.6l1-0.6l1.2-0.6c0.8-0.4,1.2-0.9,1.2-1.4c0-0.3-0.1-0.4-0.4-0.4c-0.1,0-0.4,0.1-0.7,0.2
			c-0.3,0.1-0.7,0.2-1.3,0.2c-1.6,0-2.4-1-2.4-3.1c0-0.9,0.1-2.6,0.2-5.2c0.1-2.3,0.2-4.2,0.2-5.7c0-3-0.7-5.1-2-6.3
			c-1.7-1.6-4.3-2.4-7.7-2.4c-3,0-5.5,0.8-7.6,2.3c-1,0.7-1.6,1.7-1.8,2.9c-0.1,0.3-0.1,0.6-0.2,0.8c-0.1,0.3-0.1,0.5-0.1,0.7
			c0,0.7,0.3,1,1.1,1c3.1,0,4.6-0.7,4.6-2l-0.1-0.6c0-0.3-0.1-0.6-0.1-0.9c0-1.6,1-2.4,2.9-2.4c1.5,0,2.7,0.6,3.7,1.9
			c1,1.3,1.4,2.9,1.4,4.9c0,0.7-0.1,1.4-0.3,2.3C198.8,31.1,195.5,31.9,193.8,32.8z"/>
		<path fill="#FFED00" d="M241,22.1c-1.4-2-3.7-2.9-6.9-2.9c-3,0-5.4,1.1-7.2,3.3c-0.5,0.6-0.8,0.8-1,0.8c-0.2,0-0.3-0.1-0.4-0.4
			l-0.2-1.1l0-1.7l0.1-1.5c0-0.4-0.1-0.6-0.4-0.6c-0.1,0-0.2,0.1-0.4,0.2c-1.7,1.2-3.8,2-6.3,2.6c-1.5,0.4-2.3,0.6-2.6,0.8
			c-0.3,0.1-0.4,0.4-0.4,0.8c0,0.2,0,0.3,0.1,0.4c0.1,0.1,0.2,0.2,0.4,0.2h1.4c0.8,0,1.3,0.3,1.6,0.8c0.3,0.5,0.4,1.5,0.4,3l0,1.2
			v10.5l0,1c0,1.2-0.1,2-0.4,2.5c-0.3,0.4-0.9,0.9-1.9,1.2c-0.3,0.1-0.5,0.3-0.5,0.6c0,0.4,0.2,0.6,0.7,0.6c0.3,0,0.7-0.1,1.5-0.2
			c1.5-0.2,2.9-0.3,4-0.3c0.9,0,2.4,0.1,4.7,0.4c0.9,0.1,1.7,0.1,2.4,0.1c0.7,0,1-0.3,1-0.8c0-0.4-0.3-0.6-0.8-0.7
			c-1.6-0.1-2.8-0.6-3.5-1.5c-0.7-0.8-1-2.2-1-4v-10c0-1.5,0.5-2.7,1.5-3.6c1-0.9,2.4-1.4,4-1.4c1.9,0,3.3,0.8,4.4,2.4
			c1.1,1.6,1.6,3.7,1.6,6.4v7c0,1.5-0.1,2.6-0.4,3.2c-0.3,0.6-0.9,1.1-1.8,1.4c-0.5,0.2-0.7,0.4-0.7,0.7c0,0.4,0.2,0.7,0.7,0.7
			c0.3,0,0.7,0,1.2-0.1c1.1-0.2,2.7-0.4,4.5-0.4c0.5,0,1.2,0,2.1,0.1l1.9,0.2c0.6,0.1,1,0.1,1.3,0.1c1.4,0,2.1-0.3,2.1-0.9
			c0-0.4-0.3-0.6-0.9-0.7c-1.1-0.1-2-0.5-2.7-1c-0.5-0.4-0.8-0.9-1-1.3c-0.1-0.5-0.2-1.3-0.2-2.6v-6C243,27.3,242.4,24.1,241,22.1z"
			/>
		<path fill="#FFED00" d="M265.4,21.7c1.3,2.3,3.5,5,6.7,8c3.2,3.1,6.5,5.8,9.9,8.1c1,0.7,1.6,1.3,1.6,1.8c0,0.6-0.6,1.1-1.8,1.6
			c-1.2,0.5-2.6,0.7-4.2,0.7c-2.7,0-5.3-0.7-7.9-2c-2.6-1.4-4.8-3.3-6.6-5.7c-2.5-3.3-3.8-6.2-3.9-8.9c-0.1-1.6,0.6-2.9,1.9-4
			c1.2-1,2-1.5,2.5-1.5C264.1,19.8,264.7,20.5,265.4,21.7z M264.8,6c-1.9,1.7-2.8,3.9-2.8,6.5c0,1.7,0.3,3.2,0.8,4.4
			c0.2,0.4,0.3,0.7,0.3,0.9c0,0.4-0.5,0.9-1.4,1.3c-2.2,1-3.9,2.5-5.2,4.6c-1.3,2.1-1.9,4.4-1.9,6.9c0,4.3,1.6,7.7,4.8,10.4
			c3.2,2.7,7.4,4,12.5,4c3.9,0,7.4-0.7,10.5-2l2.7-1.2c0.5-0.2,1-0.4,1.3-0.4c0.3,0,0.7,0.1,1.3,0.4c3.6,1.7,6.8,2.6,9.7,2.6
			c1.8,0,3.8-0.4,6-1.2c2.2-0.8,3.3-1.5,3.4-2.2c0-0.4-0.2-0.6-0.7-0.6c-0.1,0-0.3,0-0.5,0.1l-1.7,0.5c-0.6,0.2-1.4,0.2-2.3,0.2
			c-1.9,0-4.1-0.7-6.5-2.1c-2.4-1.4-3.6-2.7-3.7-3.8c0-0.4,0.5-1.7,1.6-4.1c1.1-2.4,1.6-4.5,1.6-6.3c0-0.9,0.1-1.4,0.3-1.7
			c0.2-0.3,0.6-0.5,1.3-0.8c0.5-0.2,0.7-0.4,0.7-0.8c0-0.5-0.3-0.8-0.9-0.8c-0.2,0-0.4,0-0.6,0.1l-1.2,0.2c-0.5,0.1-1.5,0.1-3,0.1
			c-1.3,0-3-0.1-5.1-0.2c-0.4,0-0.7,0-1,0c-0.5,0-0.8,0.2-0.8,0.7c0,0.5,0.7,0.9,2.2,1c1.8,0.1,3.1,0.6,3.8,1.4
			c0.7,0.8,1.1,2.2,1.1,4c0,1.3-0.3,2.6-0.9,3.9c-0.6,1.4-1.2,2-1.8,2.1c-0.9,0.1-4.1-2.5-9.5-7.6c-3.7-3.5-6.5-6.7-8.6-9.8
			c-2.1-3.1-3.1-5.6-3.1-7.5c0-1.1,0.4-2.1,1.3-2.9c0.9-0.8,2-1.2,3.2-1.2c2,0,4,0.8,5.8,2.5c1.8,1.7,3.1,3.8,3.8,6.3
			c0.3,0.9,0.6,1.4,1.2,1.4c0.5,0,0.8-0.2,0.8-0.7c0-0.1,0-0.3-0.1-0.5c-0.1-0.4-0.3-1.3-0.5-2.8c-0.2-1.5-0.3-2.5-0.3-3
			c0-0.1,0-0.7,0.1-1.6c0-0.4,0-0.7,0-1c0-0.9-0.2-1.4-0.7-1.4c-0.2,0-0.3,0-0.5,0.1L280.6,5c-0.2,0.2-0.5,0.2-0.8,0.2
			c-0.3,0-1.3-0.3-2.9-0.8c-2-0.7-3.8-1.1-5.3-1.1C268.9,3.3,266.6,4.2,264.8,6z"/>
		<path fill="#FFED00" d="M326.1,6.5c0.7-0.6,2.2-1,4.4-1c2.8,0,5.1,1,6.9,2.9c1.8,1.9,2.7,4.4,2.7,7.4c0,2.4-0.8,4.4-2.3,6
			c-1.5,1.6-3.5,2.3-5.9,2.3c-1,0-2.1-0.2-3.2-0.5c-0.2-0.1-0.4-0.1-0.5-0.1c-0.5,0-0.7,0.3-0.7,0.8c0,0.5,0.7,1,2.2,1.4
			c1.4,0.4,3.1,0.6,5,0.6c3.5,0,6.5-1.1,8.9-3.4c2.4-2.3,3.6-5,3.6-8.3c0-3-1.2-5.6-3.5-7.8c-2.6-2.4-6.7-3.6-12.3-3.6
			c-0.9,0-1.9,0-3,0.1l-3.3,0.2c-0.9,0.1-2,0.1-3.4,0.1c-2.9,0-5.4-0.1-7.6-0.2c-0.7-0.1-1.2-0.1-1.4-0.1c-0.9,0-1.3,0.3-1.3,0.9
			c0,0.5,0.4,0.8,1.1,0.9c2,0.2,3.5,0.9,4.4,1.9c0.9,1.1,1.3,2.7,1.3,5v23c0,2.9-0.3,5-0.8,6.1c-0.5,1.1-1.5,1.8-3.1,2.2
			c-0.5,0.1-0.8,0.4-0.7,0.9c0,0.5,0.3,0.7,1,0.7c0.5,0,1.1-0.1,1.9-0.2c2.4-0.3,4.4-0.4,5.8-0.4l1.2,0l4.6,0.2c0.7,0,1.3,0,2,0.1
			c0.4,0,0.7,0.1,0.9,0.1c0.8,0,1.1-0.3,1.1-0.8s-0.3-0.8-0.8-0.9l-1.3-0.1c-2.2-0.2-3.6-1-4.1-2.5c-0.5-1.2-0.7-3.7-0.7-7.5V10.3
			C325,8.4,325.4,7.1,326.1,6.5z"/>
		<path fill="#FFED00" d="M358.6,19.1l0-0.3c0-0.4-0.1-0.5-0.4-0.6c-0.1,0-0.3,0.1-0.5,0.2c-1.7,1.3-4.1,2.3-7.2,2.9
			c-1.2,0.3-1.8,0.6-1.8,1.2c0,0.2,0,0.3,0.1,0.4c0.1,0.2,0.4,0.2,0.8,0.2h0.7c0.9,0,1.4,0.3,1.8,0.9c0.3,0.6,0.5,1.7,0.5,3.2v10.1
			l0,1.2c0,0.9-0.2,1.7-0.5,2.6c-0.3,0.8-0.7,1.3-1.1,1.5l-1,0.5c-0.3,0.1-0.4,0.3-0.4,0.6c0,0.4,0.2,0.6,0.6,0.6c0.2,0,0.6,0,1-0.1
			c1.8-0.3,3.2-0.4,4.3-0.4c0.4,0,1.2,0.1,2.5,0.2l2.2,0.2c0.7,0.1,1.1,0.1,1.3,0.1c1.6,0,2.4-0.3,2.4-0.8c0-0.4-0.3-0.7-1-0.7
			c-1.7-0.1-2.8-0.5-3.4-1.3c-0.6-0.8-0.9-2.2-0.9-4.2V20.5C358.5,19.8,358.6,19.3,358.6,19.1z M353.1,6.3c-1.2,1.4-1.8,2.3-1.8,2.7
			c0,0.3,0.2,0.6,0.5,1l1.3,1.5l1.4,1.7c0.3,0.2,0.5,0.4,0.8,0.4c0.4,0,1.2-0.7,2.3-2c1.1-1.3,1.7-2.2,1.6-2.7c0-0.3-0.2-0.7-0.5-1
			l-1.2-1.6c-1.1-1.4-1.8-2-2.2-2C355,4.2,354.3,4.9,353.1,6.3z"/>
		<path fill="#FFED00" d="M378.5,22.9c0.9,0,1.4-0.5,1.6-1.5c0.1-0.6,0.2-1.1,0.4-1.3c0.1-0.3,0.2-0.5,0.2-0.7
			c0-0.3-0.1-0.5-0.5-0.5c-0.2,0-0.4,0.1-0.5,0.2l-0.8,0.5c-0.4,0.3-0.9,0.4-1.7,0.4h-4.3v-6.9c0-0.3-0.1-0.4-0.3-0.4
			c-0.3,0-0.8,0.5-1.4,1.4c-0.5,0.9-1.6,2.1-3.2,3.7c-1.6,1.6-2.8,2.7-3.7,3.3c-0.5,0.3-0.7,0.7-0.7,1c0,0.5,0.5,0.8,1.4,0.8h1.8V39
			c0,2.1,0.5,3.7,1.6,4.7c1,1,2.7,1.5,4.9,1.5c2.9,0,5.4-1,7.6-3l0.4-0.5l-0.1-0.3c-0.1-0.4-0.2-0.6-0.4-0.6c-0.1,0-0.3,0.1-0.5,0.2
			c-0.3,0.3-0.9,0.5-1.8,0.8c-0.9,0.3-1.6,0.4-2.1,0.4c-1.3,0-2.3-0.3-2.8-1c-0.5-0.7-0.8-1.9-0.8-3.7V22.9H378.5z"/>
		<path fill="#FFED00" d="M397.6,22.9c0.9,0,1.4-0.5,1.6-1.5c0.1-0.6,0.2-1.1,0.4-1.3c0.1-0.3,0.2-0.5,0.2-0.7
			c0-0.3-0.1-0.5-0.5-0.5c-0.2,0-0.4,0.1-0.5,0.2l-0.8,0.5c-0.4,0.3-0.9,0.4-1.7,0.4H392v-6.9c0-0.3-0.1-0.4-0.3-0.4
			c-0.3,0-0.8,0.5-1.4,1.4c-0.5,0.9-1.6,2.1-3.2,3.7c-1.6,1.6-2.8,2.7-3.7,3.3c-0.5,0.3-0.7,0.7-0.7,1c0,0.5,0.5,0.8,1.4,0.8h1.8V39
			c0,2.1,0.5,3.7,1.6,4.7c1,1,2.7,1.5,4.9,1.5c2.9,0,5.4-1,7.6-3l0.4-0.5l-0.1-0.3c-0.1-0.4-0.2-0.6-0.4-0.6c-0.1,0-0.3,0.1-0.5,0.2
			c-0.3,0.3-0.9,0.5-1.8,0.8c-0.9,0.3-1.6,0.4-2.1,0.4c-1.3,0-2.3-0.3-2.8-1c-0.5-0.7-0.8-1.9-0.8-3.7V22.9H397.6z"/>
		<path fill="#FFED00" d="M405.2,21.3c-1.7,1.4-2.5,3.2-2.5,5.5c0,1.9,0.5,3.4,1.5,4.6c1,1.1,2.8,2.2,5.3,3.2
			c2.1,0.9,3.6,1.6,4.4,2.4c0.8,0.7,1.1,1.7,1.1,3c0,1.1-0.4,2.1-1.2,2.8c-0.8,0.7-1.8,1.1-3,1.1c-2.1,0-3.8-1-5.1-3.1
			c-1.1-1.7-1.7-3.2-2-4.5c-0.1-0.5-0.3-0.8-0.7-0.8c-0.4,0-0.6,0.1-0.7,0.2c-0.1,0.1-0.1,0.4-0.1,0.9l0,1.5l0.1,3.3
			c0,0.4,0,0.8-0.1,1.2c0,0.3,0,0.6,0,0.7c0,0.5,0.2,0.8,0.7,0.8l1.3,0.2l2.1,0.5c1.8,0.4,3.3,0.6,4.5,0.6c2.3,0,4.2-0.8,5.8-2.4
			c1.6-1.6,2.4-3.6,2.4-6c0-1.9-0.5-3.5-1.5-4.8c-0.6-0.8-1.2-1.3-1.8-1.7c-0.6-0.4-1.8-1-3.6-1.7l-2.1-0.8c-2.3-1-3.5-2.3-3.5-3.9
			c0-0.9,0.4-1.7,1.2-2.4c0.8-0.7,1.7-1,2.8-1c2.1,0,3.9,1.3,5.3,3.8c0.7,1.3,1.3,2,1.6,2c0.4,0,0.6-0.2,0.6-0.6
			c0-0.1,0-0.2-0.1-0.4l-0.1-1l-0.1-1.9l-0.1-1.3c-0.1-0.5-0.5-0.9-1.3-1.2c-1.6-0.5-3.1-0.7-4.4-0.7
			C409.2,19.2,406.9,19.9,405.2,21.3z"/>
		<path fill="#FFED00" d="M450.5,9.2c0-2.6,1-4,3-4.1c0.9,0,1.3-0.3,1.3-0.8c0-0.6-0.6-0.9-1.8-0.9c-1.6,0-3.2,0.1-4.8,0.2
			c-2.1,0.2-3.6,0.4-4.6,0.4c-0.6,0-1.5-0.1-2.7-0.2l-1.3-0.1c-0.5-0.1-0.9-0.1-1.2-0.1c-0.4-0.1-0.7-0.1-0.9-0.1
			c-0.6,0-0.9,0.3-0.9,0.9c0,0.5,0.4,0.8,1.1,0.9l1.8,0.3c2.6,0.4,4,2.2,4,5.4V36c0,2.3-0.2,4-0.7,5c-0.5,1-1.4,1.7-2.6,2.1
			c-0.5,0.1-0.8,0.4-0.8,0.8c0,0.5,0.3,0.8,0.9,0.8c0.3,0,0.8,0,1.6-0.1c2.7-0.3,5.2-0.5,7.5-0.5c1.4,0,2.6,0,3.7,0.1l3.3,0.1
			c2,0.1,3.2,0.2,3.6,0.2c1.4,0.1,2.3,0.1,2.8,0.1c2.5,0,4.5-0.9,5.9-2.6c1.7-2,2.5-4.2,2.5-6.8c0-0.8-0.2-1.2-0.5-1.2
			c-0.2,0-0.8,0.6-1.6,1.8c-2.8,4-7.6,5.9-14.3,5.9c-1.4,0-2.4-0.1-2.9-0.4c-0.9-0.5-1.3-2.5-1.3-6.3V9.2z"/>
		<path fill="#FFED00" d="M486.5,22.9c0.9,0,1.4-0.5,1.6-1.5c0.1-0.6,0.2-1.1,0.4-1.3c0.1-0.3,0.2-0.5,0.2-0.7
			c0-0.3-0.1-0.5-0.5-0.5c-0.2,0-0.4,0.1-0.5,0.2l-0.8,0.5c-0.4,0.3-0.9,0.4-1.7,0.4h-4.3v-6.9c0-0.3-0.1-0.4-0.3-0.4
			c-0.3,0-0.8,0.5-1.4,1.4c-0.5,0.9-1.6,2.1-3.2,3.7c-1.6,1.6-2.8,2.7-3.7,3.3c-0.5,0.3-0.7,0.7-0.7,1c0,0.5,0.5,0.8,1.4,0.8h1.8V39
			c0,2.1,0.5,3.7,1.6,4.7c1,1,2.7,1.5,4.9,1.5c2.9,0,5.4-1,7.6-3l0.4-0.5l-0.1-0.3c-0.1-0.4-0.2-0.6-0.4-0.6c-0.1,0-0.3,0.1-0.5,0.2
			c-0.3,0.3-0.9,0.5-1.8,0.8c-0.9,0.3-1.6,0.4-2.1,0.4c-1.3,0-2.3-0.3-2.8-1c-0.5-0.7-0.8-1.9-0.8-3.7V22.9H486.5z"/>
		<path fill="#FFED00" d="M509.6,39.3c-0.3,0.5-0.9,0.9-2,1.4c-1,0.4-2,0.6-2.9,0.6c-2.5,0-4.6-1.1-6.3-3.4c-1.7-2.3-2.6-5-2.6-8.3
			c0-2.6,0.6-4.7,1.7-6.3c1.1-1.6,2.7-2.4,4.5-2.4c2.1,0,3.9,0.6,5.5,1.8c1.6,1.2,2.3,2.5,2.3,4.1v10.9
			C509.9,38.4,509.8,39,509.6,39.3z M516.1,6.6l0-1.6c0-0.5,0-1.1,0.1-1.8c0-0.4,0-0.6,0-0.7c0-0.7-0.2-1-0.5-1
			c-0.3,0-0.6,0.2-0.9,0.4c-1.8,1.3-4.1,2.1-6.9,2.6l-1.7,0.3c-0.4,0.1-0.6,0.3-0.6,0.8c0,0.5,0.3,0.8,1,0.8c1.3,0,2.2,0.4,2.6,1.3
			c0.4,0.8,0.7,2.5,0.7,4.9v7c0,0.7-0.2,1-0.5,1c-0.2,0-0.3,0-0.5-0.1c-2-0.8-3.9-1.1-5.7-1.1c-3.5,0-6.5,1.5-9,4.4
			s-3.7,6.5-3.7,10.6c0,3.3,0.9,5.9,2.8,8c1.9,2,4.3,3.1,7.3,3.1c1.4,0,2.9-0.3,4.5-1s2.9-1.5,3.9-2.5c0.2-0.2,0.3-0.3,0.4-0.3
			l0.2,0.1c0.1,0.2,0.1,0.4,0.1,0.7l0,2.4c0,0.4,0.1,0.5,0.3,0.5c0.2,0,0.5-0.1,0.9-0.2c1.6-0.6,3-1,4.2-1.1l2.6-0.4l1.6-0.2
			c0.6,0,0.9-0.3,0.9-0.9c0-0.5-0.3-0.7-1-0.7c-1.3,0-2.2-0.4-2.7-1.1c-0.5-0.7-0.7-2-0.7-4V11.8L516.1,6.6z"/>
		<path fill="#FFED00" d="M526.3,36.2c-0.8,0.9-1.5,1.6-1.9,1.9c-0.9,0.8-1.3,1.4-1.3,1.8c0,0.5,0.5,1.2,1.5,2
			c0.5,0.4,1.2,1.2,2.1,2.1c0.7,0.7,1.2,1.1,1.6,1.1c0.5,0,1.2-0.5,2.2-1.6c0.7-0.7,1.2-1.3,1.7-1.7c0.9-0.8,1.3-1.4,1.3-1.9
			c0-0.3-0.1-0.6-0.3-0.9L532,38l-1.8-1.9c-0.8-0.9-1.5-1.3-2-1.3C527.8,34.8,527.1,35.3,526.3,36.2z"/>
		<path fill="#FFED00" d="M122.5,58.3c0-0.8,0.2-1.2,0.7-1.4l0.9-0.1h1.7c1.5,0,2.6,0.2,3.2,0.6c0.7,0.4,1,1.1,1,2
			c0,0.4,0.1,0.6,0.3,0.6c0.4,0,0.5-0.4,0.5-1.1c0-0.3,0-0.9-0.1-1.7c-0.1-0.5-0.1-0.9-0.1-1.1c0-0.3-0.1-0.5-0.4-0.5
			c-0.1,0-0.1,0-0.2,0c-0.7,0.1-2.5,0.1-5.6,0.1l-5.2-0.1l-1.4-0.1c-0.3,0-0.5,0-0.7,0c-0.2,0-0.3,0-0.4,0c-0.3,0-0.5,0.1-0.5,0.3
			c0,0.2,0.1,0.4,0.4,0.4c1.1,0.1,1.8,0.4,2.1,0.8c0.3,0.4,0.5,1.1,0.5,2.1v10.9c0,0.8-0.1,1.5-0.2,2c-0.1,0.6-0.3,1-0.4,1.2
			c-0.2,0.2-0.5,0.4-1.1,0.6c-0.2,0.1-0.3,0.2-0.3,0.4c0,0.2,0.1,0.3,0.4,0.3c0.2,0,0.4,0,0.8,0c1.4-0.1,2.4-0.1,3.1-0.1
			c1,0,1.8,0,2.4,0.1l1.6,0.2c0.7,0.1,1.4,0.1,2,0.1c1,0,1.8-0.2,2.4-0.5c0.6-0.3,1.1-0.8,1.5-1.5c0.5-0.8,0.7-1.7,0.7-2.6
			c0-0.1,0-0.2-0.1-0.3c-0.1-0.1-0.2-0.1-0.3-0.1c0,0-0.1,0.1-0.2,0.2c-1.1,2.3-3.6,3.4-7.3,3.4c-0.4,0-0.8-0.1-1-0.2
			c-0.2-0.1-0.4-0.4-0.6-0.8c-0.2-0.6-0.3-1.5-0.3-2.8v-1.2c0-1,0-1.7,0.1-2.2c0.1-0.4,0.2-0.7,0.3-0.8c0.2-0.1,0.5-0.2,0.9-0.2h0.9
			c0.9,0,1.6,0,1.9,0.1c0.3,0.1,0.6,0.2,0.9,0.4c0.4,0.4,0.7,1,0.8,1.8c0.1,0.4,0.2,0.5,0.4,0.5c0.1,0,0.2,0,0.2-0.1
			c0,0,0-0.1,0-0.3l0-0.7c0-0.5,0-1.1-0.1-1.9c-0.1-1.1-0.1-1.8-0.1-2.1c0-0.2,0-0.4,0-0.6c0-0.3,0-0.5,0-0.6c0-0.3-0.1-0.4-0.3-0.4
			c-0.2,0-0.3,0.1-0.4,0.3l-0.3,0.7c-0.5,1-1.2,1.5-2.1,1.5h-1.2l-0.6,0l-0.4,0c-0.5,0-0.8-0.1-0.9-0.3c-0.1-0.2-0.2-0.8-0.2-1.6v-3
			L122.5,58.3z"/>
		<path fill="#FFED00" d="M139.3,56.9c-1,1-1.5,2.3-1.5,3.8c0,1.3,0.4,2.3,1.1,3.1c0.7,0.8,2.1,1.6,4,2.5l2.1,0.9
			c0.9,0.4,1.6,0.9,2,1.3c0.4,0.5,0.6,1.1,0.6,1.8c0,0.9-0.4,1.7-1.1,2.4c-0.7,0.7-1.6,1.1-2.5,1.1c-1.2,0-2.4-0.5-3.5-1.6
			c-1.1-1.1-1.9-2.4-2.3-4c-0.1-0.2-0.1-0.3-0.3-0.3c-0.3,0-0.4,0.2-0.4,0.7c0,0.3,0.2,1.1,0.5,2.4c0.2,0.8,0.4,1.4,0.4,1.9
			c0,0.4,0.1,0.6,0.2,0.7c0.1,0.1,0.3,0.2,0.7,0.2c0.3,0.1,0.8,0.2,1.4,0.4c1.4,0.4,2.4,0.6,3,0.6c1.6,0,2.9-0.6,4.1-1.8
			c1.2-1.2,1.7-2.6,1.7-4.2c0-1.5-0.4-2.7-1.3-3.7c-0.7-0.9-2.2-1.7-4.3-2.6c-1.8-0.7-2.9-1.3-3.3-1.6c-0.5-0.5-0.8-1.1-0.8-1.8
			c0-0.8,0.3-1.4,0.9-2c0.6-0.6,1.3-0.8,2.2-0.8c1.2,0,2.3,0.5,3.4,1.4c1.1,0.9,1.7,2,2,3.3c0.1,0.3,0.2,0.5,0.4,0.5
			c0.2,0,0.3-0.2,0.3-0.6c0-0.1,0-0.2,0-0.3l-0.1-1.3l-0.2-1.3c0-0.2,0-0.3,0-0.5l0-1.1c0-0.3-0.1-0.5-0.3-0.5c-0.1,0-0.1,0-0.2,0.1
			l-0.5,0.3c-0.1,0.1-0.3,0.1-0.4,0.1c-0.2,0-0.5-0.1-0.9-0.2l-0.9-0.4c-0.8-0.3-1.7-0.5-2.5-0.5C141.5,55.3,140.3,55.8,139.3,56.9z
			"/>
		<path fill="#FFED00" d="M165.9,57.4c0.3-0.2,1.2-0.3,2.6-0.3c1,0,1.8,0.2,2.4,0.6c0.5,0.4,0.9,1,1.1,1.9c0.1,0.4,0.2,0.5,0.4,0.5
			c0.2,0,0.4-0.2,0.4-0.5c0-0.3,0-0.7-0.1-1.2c-0.1-0.6-0.1-1-0.1-1.1l-0.1-1c0-0.4-0.3-0.6-0.8-0.6c-0.1,0-0.4,0-0.9,0
			c-2.4,0.1-4.7,0.2-6.9,0.2l-3.3,0l-2.8,0c-0.7,0-1.2,0-1.5,0c-0.2,0-0.4,0-0.5,0c-0.3,0-0.5,0.2-0.6,0.5l-0.1,0.8l-0.2,1.2
			l-0.1,1.2c-0.1,0.5-0.1,0.8-0.1,1.1c0,0.3,0.1,0.4,0.4,0.4c0.2,0,0.4-0.2,0.5-0.6l0.1-0.4c0.3-1,0.5-1.6,0.7-1.9
			c0.2-0.3,0.5-0.5,1-0.7c0.7-0.3,1.9-0.4,3.8-0.4c0.8,0,1.2,0.4,1.2,1.1v12.2l0,0.6c0,0.8-0.2,1.5-0.6,1.9
			c-0.4,0.5-0.9,0.7-1.7,0.8c-0.3,0-0.5,0.1-0.5,0.1c-0.1,0.1-0.1,0.2-0.1,0.4c0,0.2,0.1,0.4,0.4,0.4c0.1,0,0.3,0,0.7-0.1l3-0.2
			c0.4,0,0.9,0,1.4,0c0.2,0,0.4,0,0.6,0l1.7,0.1l1,0c0.2,0,0.3,0,0.3,0c0.3,0,0.4-0.1,0.4-0.3c0-0.3-0.2-0.5-0.5-0.5
			c-1.1-0.1-1.9-0.4-2.4-1.1c-0.4-0.6-0.7-1.7-0.7-3.3V59C165.3,58.1,165.5,57.6,165.9,57.4z"/>
		<path fill="#FFED00" d="M186.9,66c0,0.1,0.1,0.2,0.1,0.2c0,0.2-0.2,0.3-0.5,0.3h-4.1c-0.7,0-1-0.2-1-0.5c0-0.1,0-0.2,0.1-0.4
			l0.2-0.3l1.6-3.7l0.3-0.6c0.3-0.7,0.5-1,0.6-1c0.2,0,0.5,0.5,0.9,1.5l1.8,4.2L186.9,66z M185.9,56.5c-0.4-0.8-0.6-1.2-0.8-1.2
			c-0.1,0-0.3,0.3-0.6,1v0l-0.7,1.3l-1.3,2.6c-0.1,0.3-0.3,0.7-0.6,1.4l-3.8,8.7c-0.6,1.3-1,2.2-1.3,2.6c-0.3,0.4-0.7,0.7-1.2,0.9
			c-0.3,0.1-0.4,0.2-0.4,0.4c0,0.2,0.1,0.3,0.4,0.3c0.2,0,0.6,0,1.3-0.1c1-0.1,1.7-0.1,2.1-0.1c0.5,0,1,0.1,1.6,0.2
			c0.3,0.1,0.5,0.1,0.7,0.1c0.3,0,0.5-0.1,0.5-0.4c0-0.2-0.2-0.4-0.5-0.4c-1.6-0.2-2.4-0.9-2.4-2c0-0.3,0.1-0.6,0.2-0.9l0.4-1.1
			c0.4-1.1,0.8-1.7,1.2-1.8l1.2-0.2h1.9c1.8,0,2.9,0,3.2,0.1c0.3,0.1,0.6,0.4,0.8,0.9c0.8,1.7,1.2,2.9,1.2,3.4c0,0.4-0.1,0.7-0.4,1
			c-0.3,0.3-0.7,0.6-1.1,0.7c-0.2,0.1-0.3,0.2-0.3,0.3c0,0.3,0.1,0.4,0.4,0.4c0.1,0,0.2,0,0.4-0.1c0.6-0.1,1.6-0.2,3.2-0.2
			c1.6,0,2.7,0.1,3.4,0.2c0.2,0,0.4,0.1,0.5,0.1c0.2,0,0.3-0.1,0.3-0.4c0-0.2-0.1-0.4-0.2-0.4c-0.7-0.1-1.2-0.4-1.6-0.7
			c-0.4-0.4-0.8-0.9-1.1-1.6l-6.3-14.4L185.9,56.5z"/>
		<path fill="#FFED00" d="M206.2,65.4c0.2-0.3,0.6-0.5,1.3-0.5c1.4,0,2.7,0.1,3.8,0.4c1.9,0.5,2.9,1.8,2.9,4c0,1.1-0.3,2-0.9,2.8
			c-0.7,0.9-2.1,1.4-4,1.4c-2,0-3-0.7-3.1-2l-0.1-1.2l0-0.5v-2.3C206,66.5,206.1,65.7,206.2,65.4z M206.4,56.9
			c0.3-0.3,0.8-0.4,1.7-0.4c1.4,0,2.6,0.4,3.4,1.3c0.9,0.8,1.3,1.9,1.3,3.3c0,1.7-0.8,2.6-2.4,2.8l-0.9,0l-1.9,0
			c-0.6,0-1.1-0.1-1.4-0.3c-0.3-0.2-0.4-0.6-0.4-1.1v-4C206,57.7,206.1,57.1,206.4,56.9z M202.8,71.1c0,1.7-0.5,2.7-1.6,2.8
			c-0.2,0-0.4,0.2-0.4,0.4c0,0.2,0.1,0.4,0.4,0.4c0.3,0,0.6,0,0.9-0.1c1-0.1,2.2-0.2,3.6-0.2l2.1,0l2.8,0.1c2.1,0,3.7-0.5,4.9-1.6
			c1.2-1.1,1.8-2.5,1.8-4.3c0-1.2-0.3-2.2-1-3c-0.7-0.8-1.6-1.3-2.7-1.5c-0.4-0.1-0.5-0.2-0.5-0.3c0-0.1,0.2-0.2,0.5-0.4
			c1.5-0.6,2.2-1.8,2.2-3.4c0-1.4-0.6-2.5-1.8-3.4c-1.2-0.8-2.7-1.3-4.7-1.3c-0.7,0-1.7,0.1-2.7,0.2c-1.8,0.2-3,0.2-3.6,0.2
			c-0.2,0-0.8,0-1.6-0.1l-1-0.1l-0.3,0c-0.3,0-0.4,0.1-0.4,0.4c0,0.2,0.1,0.4,0.3,0.4l0.6,0.1c1.5,0.2,2.3,1.2,2.3,3V71.1z"/>
		<path fill="#FFED00" d="M228.1,58.3c0-1.2,0.5-1.8,1.4-1.9c0.4,0,0.6-0.1,0.6-0.4c0-0.3-0.3-0.4-0.8-0.4c-0.7,0-1.5,0-2.2,0.1
			c-1,0.1-1.7,0.2-2.1,0.2c-0.3,0-0.7,0-1.3-0.1l-0.6,0c-0.2,0-0.4,0-0.5-0.1c-0.2,0-0.3,0-0.4,0c-0.3,0-0.4,0.1-0.4,0.4
			c0,0.2,0.2,0.4,0.5,0.4l0.8,0.1c1.2,0.2,1.8,1,1.8,2.5v11.5c0,1.1-0.1,1.8-0.3,2.3c-0.2,0.5-0.6,0.8-1.2,1
			c-0.2,0.1-0.4,0.2-0.4,0.4c0,0.2,0.1,0.4,0.4,0.4c0.1,0,0.4,0,0.8-0.1c1.2-0.1,2.4-0.2,3.4-0.2c0.6,0,1.2,0,1.7,0l1.5,0.1
			c0.9,0.1,1.5,0.1,1.7,0.1c0.6,0,1.1,0.1,1.3,0.1c1.2,0,2.1-0.4,2.7-1.2c0.8-0.9,1.1-2,1.1-3.1c0-0.4-0.1-0.6-0.3-0.6
			c-0.1,0-0.4,0.3-0.8,0.8c-1.3,1.8-3.5,2.7-6.6,2.7c-0.7,0-1.1-0.1-1.3-0.2c-0.4-0.2-0.6-1.2-0.6-2.9V58.3z"/>
		<path fill="#FFED00" d="M247.5,58.5c0-0.8,0.1-1.3,0.3-1.6c0.2-0.3,0.6-0.4,1.3-0.6c0.2,0,0.3-0.1,0.3-0.1c0-0.1,0.1-0.2,0.1-0.3
			c0-0.2-0.2-0.3-0.5-0.3c-0.5,0-1.2,0-2.2,0.1l-1,0.1c-0.8,0.1-1.4,0.1-1.9,0.1c-0.8,0-1.3,0-1.7-0.1c-0.3-0.1-0.6-0.1-0.7-0.1
			c-0.2,0-0.3,0.1-0.3,0.4c0,0.2,0.1,0.3,0.2,0.4c0.1,0.1,0.4,0.1,0.9,0.2c0.8,0.1,1.3,0.4,1.6,0.7c0.3,0.4,0.4,1,0.4,1.8v11l0,1.2
			c0,0.8-0.1,1.4-0.3,1.7c-0.2,0.3-0.7,0.6-1.3,0.9l-0.4,0.3l0,0.1c0.1,0.2,0.2,0.3,0.4,0.3c0.2,0,0.5,0,1-0.1
			c0.5-0.1,1.3-0.1,2.2-0.1c0.7,0,1.7,0.1,2.9,0.2c0.5,0,0.8,0.1,1.1,0.1c0.6,0,0.9-0.1,0.9-0.4c0-0.3-0.2-0.4-0.7-0.4
			c-0.7,0-1.2-0.2-1.7-0.6c-0.4-0.4-0.7-0.9-0.8-1.6l-0.1-1.4V58.5z"/>
		<path fill="#FFED00" d="M257.3,56.9c-1,1-1.5,2.3-1.5,3.8c0,1.3,0.4,2.3,1.1,3.1c0.7,0.8,2.1,1.6,4,2.5l2.1,0.9
			c0.9,0.4,1.6,0.9,2,1.3c0.4,0.5,0.6,1.1,0.6,1.8c0,0.9-0.4,1.7-1.1,2.4c-0.7,0.7-1.6,1.1-2.5,1.1c-1.2,0-2.4-0.5-3.5-1.6
			c-1.1-1.1-1.9-2.4-2.3-4c-0.1-0.2-0.1-0.3-0.3-0.3c-0.3,0-0.4,0.2-0.4,0.7c0,0.3,0.2,1.1,0.5,2.4c0.2,0.8,0.4,1.4,0.4,1.9
			c0,0.4,0.1,0.6,0.2,0.7c0.1,0.1,0.3,0.2,0.7,0.2c0.3,0.1,0.8,0.2,1.4,0.4c1.4,0.4,2.4,0.6,3,0.6c1.6,0,2.9-0.6,4.1-1.8
			c1.2-1.2,1.7-2.6,1.7-4.2c0-1.5-0.4-2.7-1.3-3.7c-0.7-0.9-2.2-1.7-4.3-2.6c-1.8-0.7-2.9-1.3-3.3-1.6c-0.5-0.5-0.8-1.1-0.8-1.8
			c0-0.8,0.3-1.4,0.9-2c0.6-0.6,1.3-0.8,2.2-0.8c1.2,0,2.3,0.5,3.4,1.4c1.1,0.9,1.7,2,2,3.3c0.1,0.3,0.2,0.5,0.4,0.5
			c0.2,0,0.3-0.2,0.3-0.6c0-0.1,0-0.2,0-0.3l-0.1-1.3l-0.2-1.3c0-0.2,0-0.3,0-0.5l0-1.1c0-0.3-0.1-0.5-0.3-0.5c-0.1,0-0.1,0-0.2,0.1
			l-0.5,0.3c-0.1,0.1-0.3,0.1-0.4,0.1c-0.2,0-0.5-0.1-0.9-0.2l-0.9-0.4c-0.8-0.3-1.7-0.5-2.5-0.5C259.5,55.3,258.3,55.8,257.3,56.9z
			"/>
		<path fill="#FFED00" d="M287.7,65.4c0.1,0.2,0.2,0.7,0.2,1.6v3l0,0.7c0,1-0.1,1.7-0.4,2.1c-0.3,0.5-0.7,0.8-1.3,0.9
			c-0.2,0-0.3,0.1-0.3,0.3c0,0.3,0.1,0.5,0.4,0.5c0.1,0,0.5,0,1.1-0.1c0.9-0.1,1.7-0.2,2.3-0.2c0.9,0,1.9,0.1,3,0.2
			c0.5,0.1,0.8,0.1,1,0.1c0.5,0,0.7-0.1,0.7-0.4c0-0.2-0.2-0.4-0.5-0.4c-0.9,0-1.6-0.3-2-0.9c-0.4-0.6-0.6-1.5-0.6-2.8V58.3
			c0-1.2,0.5-1.9,1.6-2c0.3,0,0.4-0.2,0.4-0.4c0-0.3-0.2-0.4-0.5-0.4c-0.3,0-0.8,0-1.5,0.1c-1.1,0.1-1.8,0.2-2.2,0.2
			c-1,0-1.9-0.1-2.6-0.2c-0.4-0.1-0.7-0.1-0.9-0.1c-0.3,0-0.4,0.1-0.4,0.4c0,0.2,0.1,0.4,0.4,0.4l0.6,0.1c1.3,0.2,1.9,0.9,1.9,2.1v3
			c0,1-0.1,1.6-0.2,1.9c-0.1,0.2-0.5,0.3-1,0.3h-6.4c-0.8,0-1.2-0.1-1.3-0.2c-0.1-0.2-0.2-0.7-0.2-1.6v-3.5c0-1.2,0.5-1.9,1.6-2
			c0.3,0,0.4-0.2,0.4-0.4c0-0.3-0.2-0.4-0.5-0.4c-0.3,0-0.8,0-1.5,0.1c-1.1,0.1-1.8,0.2-2.2,0.2c-1,0-1.9-0.1-2.6-0.2
			c-0.4-0.1-0.7-0.1-0.9-0.1c-0.3,0-0.4,0.1-0.4,0.4c0,0.2,0.1,0.4,0.4,0.4c1,0.2,1.7,0.4,2,0.8c0.4,0.3,0.5,0.8,0.5,1.5v11.5l0,0.7
			c0,1-0.1,1.7-0.4,2.1c-0.3,0.5-0.7,0.8-1.3,0.9c-0.2,0-0.3,0.1-0.3,0.3c0,0.3,0.1,0.5,0.4,0.5c0.1,0,0.5,0,1.1-0.1
			c0.9-0.1,1.7-0.2,2.3-0.2c0.9,0,1.9,0.1,3,0.2c0.5,0.1,0.8,0.1,1,0.1c0.5,0,0.7-0.1,0.7-0.4c0-0.2-0.2-0.4-0.5-0.4
			c-1,0-1.7-0.3-2.1-0.9c-0.4-0.6-0.6-1.5-0.6-2.8v-3.4c0-0.7,0.1-1.2,0.2-1.3c0.2-0.2,0.6-0.3,1.2-0.3h6.5
			C287.2,65.1,287.6,65.2,287.7,65.4z"/>
		<path fill="#FFED00" d="M304.9,58.3c0-0.8,0.2-1.2,0.7-1.4l0.9-0.1h1.7c1.5,0,2.6,0.2,3.2,0.6c0.7,0.4,1,1.1,1,2
			c0,0.4,0.1,0.6,0.3,0.6c0.4,0,0.5-0.4,0.5-1.1c0-0.3,0-0.9-0.1-1.7c-0.1-0.5-0.1-0.9-0.1-1.1c0-0.3-0.1-0.5-0.4-0.5
			c-0.1,0-0.1,0-0.2,0c-0.7,0.1-2.5,0.1-5.6,0.1l-5.2-0.1l-1.4-0.1c-0.3,0-0.5,0-0.7,0c-0.2,0-0.3,0-0.4,0c-0.3,0-0.5,0.1-0.5,0.3
			c0,0.2,0.1,0.4,0.4,0.4c1.1,0.1,1.8,0.4,2.1,0.8c0.3,0.4,0.5,1.1,0.5,2.1v10.9c0,0.8-0.1,1.5-0.2,2c-0.1,0.6-0.3,1-0.4,1.2
			c-0.2,0.2-0.5,0.4-1.1,0.6c-0.2,0.1-0.3,0.2-0.3,0.4c0,0.2,0.1,0.3,0.4,0.3c0.2,0,0.4,0,0.8,0c1.4-0.1,2.4-0.1,3.1-0.1
			c1,0,1.8,0,2.4,0.1l1.6,0.2c0.7,0.1,1.4,0.1,2,0.1c1,0,1.8-0.2,2.4-0.5c0.6-0.3,1.1-0.8,1.5-1.5c0.5-0.8,0.7-1.7,0.7-2.6
			c0-0.1,0-0.2-0.1-0.3c-0.1-0.1-0.2-0.1-0.3-0.1c0,0-0.1,0.1-0.2,0.2c-1.1,2.3-3.6,3.4-7.3,3.4c-0.4,0-0.8-0.1-1-0.2
			c-0.2-0.1-0.4-0.4-0.6-0.8c-0.2-0.6-0.3-1.5-0.3-2.8v-1.2c0-1,0-1.7,0.1-2.2c0.1-0.4,0.2-0.7,0.3-0.8c0.2-0.1,0.5-0.2,0.9-0.2h0.9
			c0.9,0,1.6,0,1.9,0.1c0.3,0.1,0.6,0.2,0.9,0.4c0.4,0.4,0.7,1,0.8,1.8c0.1,0.4,0.2,0.5,0.4,0.5c0.1,0,0.2,0,0.2-0.1
			c0,0,0-0.1,0-0.3l0-0.7c0-0.5,0-1.1-0.1-1.9c-0.1-1.1-0.1-1.8-0.1-2.1c0-0.2,0-0.4,0-0.6c0-0.3,0-0.5,0-0.6c0-0.3-0.1-0.4-0.3-0.4
			c-0.2,0-0.3,0.1-0.4,0.3l-0.3,0.7c-0.5,1-1.2,1.5-2.1,1.5H307l-0.6,0l-0.4,0c-0.5,0-0.8-0.1-0.9-0.3c-0.1-0.2-0.2-0.8-0.2-1.6v-3
			L304.9,58.3z"/>
		<path fill="#FFED00" d="M325.7,56.8c0.4-0.3,1-0.4,2-0.4c2.4,0,4.3,0.8,5.8,2.5c1.5,1.7,2.2,3.8,2.2,6.4c0,2.5-0.6,4.5-1.9,6
			c-1.2,1.5-2.9,2.2-5.1,2.2c-2,0-3.1-0.5-3.4-1.6l-0.2-1.3V58.6C325.3,57.6,325.4,57,325.7,56.8z M322.1,71.3
			c0,0.9-0.1,1.5-0.3,1.8c-0.2,0.4-0.6,0.6-1.2,0.7c-0.2,0-0.3,0.2-0.3,0.4c0,0.3,0.1,0.4,0.3,0.4c0.1,0,0.4,0,0.9-0.1
			c0.5-0.1,1.6-0.1,3.3-0.1c0.7,0,1.4,0,2,0.1c1.2,0.1,1.9,0.1,2.3,0.1c2.3,0,4.4-0.7,6.3-2.2c2.5-2,3.8-4.7,3.8-8.1
			c0-2.6-0.9-4.8-2.8-6.4c-1.9-1.6-4.4-2.4-7.5-2.4c-0.8,0-1.9,0.1-3.2,0.2c-1,0.1-1.8,0.2-2.4,0.2c-0.4,0-0.8,0-1.3,0l-2.1,0
			c-0.4,0-0.7,0-0.8,0.1c-0.1,0.1-0.2,0.2-0.2,0.3c0,0.2,0.1,0.4,0.4,0.4c0.9,0,1.6,0.2,2.1,0.7c0.5,0.5,0.7,1.2,0.7,2V71.3z"/>
		<path fill="#FFED00" d="M364.1,58.6l0.1-1.2c0-0.3,0-0.4,0-0.5c0-0.3-0.1-0.5-0.3-0.5c-0.1,0-0.3,0-0.4,0.1l-0.6,0.6
			c-0.6,0.5-1.5,0.9-2.8,1.2c-0.7,0.2-1.2,0.3-1.4,0.4c-0.2,0.1-0.3,0.3-0.3,0.5c0,0.2,0.1,0.3,0.4,0.3c0.1,0,0.2,0,0.3-0.1l0.3-0.2
			c0.2-0.1,0.5-0.2,0.8-0.2c0.8,0,1.1,0.5,1.1,1.4v10.5l0,0.5c0,0.8-0.1,1.3-0.4,1.6c-0.3,0.3-0.9,0.5-1.8,0.6
			c-0.2,0-0.4,0.2-0.4,0.4c0,0.2,0.1,0.4,0.3,0.4c0.1,0,0.3,0,0.6,0c0.7-0.1,1.5-0.1,2.4-0.1c0.9,0,1.7,0,2.2,0.1
			c1,0.1,1.6,0.1,1.8,0.1c0.8,0,1.2-0.2,1.2-0.5c0-0.2-0.2-0.3-0.6-0.3c-1.3-0.1-2-0.5-2.3-1.2l-0.1-0.8l0-0.6V59.5
			C364.1,59.1,364.1,58.9,364.1,58.6z"/>
		<path fill="#FFED00" d="M381,59.1c0.8,1.1,1.2,2.5,1.2,4c0,1-0.3,1.9-0.9,2.6c-0.6,0.7-1.3,1.1-2.2,1.1c-1.1,0-2-0.5-2.7-1.5
			c-0.7-1-1-2.3-1-3.9c0-1.1,0.3-2.1,0.8-2.8c0.5-0.7,1.2-1.1,2-1.1C379.2,57.4,380.2,57.9,381,59.1z M374.4,58.3
			c-1.2,1.2-1.8,2.8-1.8,4.7c0,1.5,0.4,2.7,1.3,3.7c0.9,1,1.9,1.5,3.2,1.5c0.5,0,1.1-0.1,1.8-0.4c0.7-0.3,1.3-0.6,1.8-0.9
			c0.1-0.1,0.3-0.2,0.4-0.2c0.2,0,0.3,0.1,0.3,0.4c0,0.2,0,0.4-0.1,0.6l-0.3,0.8c-0.4,1.2-1.2,2.3-2.5,3.4c-1.2,1.1-2.5,1.8-3.8,2.1
			c-0.4,0.1-0.7,0.2-0.7,0.2c-0.1,0-0.1,0.1-0.1,0.3c0,0.3,0.1,0.4,0.3,0.4c0.1,0,0.2,0,0.3,0l1.1-0.2c2.7-0.5,5-1.8,6.8-3.9
			c1.8-2.1,2.7-4.5,2.7-7.1c0-2.1-0.6-3.9-1.7-5.2c-1.2-1.4-2.6-2-4.5-2C377.1,56.5,375.6,57.1,374.4,58.3z"/>
		<path fill="#FFED00" d="M400.2,59.9c0,0.4-0.3,1.2-0.8,2.4c-0.6,1.2-1.2,2.2-1.8,3.2l-1.4,2.2c-1.5,2.2-2.2,4.4-2.2,6.5
			c0,0.7,0.1,1.2,0.3,1.4c0.2,0.2,0.5,0.4,1.1,0.4c0.4,0,0.9-0.1,1.7-0.4c0.1,0,0.2-0.1,0.2-0.1c0.3-0.1,0.4-0.2,0.4-0.3
			c0-0.1,0-0.1,0-0.2l-0.2-0.6c-0.1-0.5-0.2-1.2-0.2-2.1c0-1.6,0.6-3.8,1.9-6.8l1.3-3c0.9-2,1.3-3.6,1.3-4.7c0-0.4-0.1-0.7-0.2-0.8
			c-0.1-0.1-0.5-0.2-1.1-0.2h-5.6c-0.8,0-1.4,0-1.7,0c-0.3,0-0.5,0-0.6,0c-0.3,0-0.4,0.1-0.5,0.3l-0.1,0.5l-0.4,1.1
			c-0.3,0.9-0.4,1.7-0.4,2.5c0,0.5,0.1,0.7,0.4,0.7c0.2,0,0.3-0.2,0.4-0.6c0.1-0.8,0.5-1.3,1.1-1.6l1.4-0.2l1.2,0h3.6
			C399.9,59.4,400.2,59.6,400.2,59.9z"/>
		<path fill="#FFED00" d="M415.5,66.2c0.7,1,1,2.3,1,4c0,1.2-0.3,2.1-0.8,2.8c-0.5,0.7-1.2,1.1-2.1,1.1c-1.1,0-2-0.6-2.8-1.7
			c-0.8-1.1-1.2-2.4-1.2-3.9c0-1.1,0.3-2,0.9-2.7c0.6-0.7,1.3-1.1,2.3-1.1C413.9,64.7,414.8,65.2,415.5,66.2z M414.6,57
			c-2.3,0.7-4.1,2.1-5.6,4.1c-1.5,2-2.2,4.1-2.2,6.4c0,2.2,0.6,3.9,1.7,5.3c1.2,1.4,2.6,2.1,4.5,2.1c1.9,0,3.4-0.6,4.5-1.9
			c1.2-1.2,1.7-2.9,1.7-4.8c0-1.4-0.4-2.6-1.3-3.6c-0.9-1-1.9-1.5-3.2-1.5c-0.5,0-1.1,0.1-1.8,0.4c-0.7,0.2-1.3,0.5-1.8,0.8
			c-0.2,0.1-0.3,0.2-0.4,0.2c-0.2,0-0.3-0.1-0.3-0.3c0-0.4,0.2-1,0.6-1.8c0.4-0.8,0.8-1.5,1.2-2c0.6-0.8,1.4-1.4,2.4-2.1
			c1-0.6,1.9-1,2.8-1.1c0.4-0.1,0.6-0.1,0.6-0.3l0-0.2l-0.1-0.2c0-0.1-0.1-0.1-0.3-0.1C417,56.4,416,56.6,414.6,57z"/>
	</g>
</g>
</svg>
