<svg id="Layer_1" data-name="Layer 1" xmlns="http://www.w3.org/2000/svg" xmlns:xlink="http://www.w3.org/1999/xlink" width="289.62" height="95.87" viewBox="0 0 289.62 95.87"><defs><style>.cls-1{fill:none;}.cls-2{clip-path:url(#clip-path);}.cls-3,.cls-4{fill:#fff;}.cls-3{stroke:#fff;stroke-miterlimit:10;stroke-width:0.25px;}</style><clipPath id="clip-path"><polygon class="cls-1" points="191.68 95.82 133.68 95.82 133.68 19.82 148.68 32.82 153.68 38.82 167.68 49.82 182.68 56.82 191.68 19.82 191.68 95.82"/></clipPath></defs><g class="cls-2"><path class="cls-3" d="M158.48,92.73l-.17-.11c-.66-.43-1-.64-1.29-.81-.64-.39-1-.62-4.08-2.75l-.13-.09,0-.16a20.45,20.45,0,0,1,1-3.77,6.86,6.86,0,0,0-1.64,2.42l-.18.45-.26-.41a39.16,39.16,0,0,1-4.13-8.33l0-.09,0-.09c.14-.33.3-.71.46-1.11q-.15.3-.27.57l-.26.55-.36-1v0l-.22-.84a29.55,29.55,0,0,1-.9-4.82c0-.21-.05-.41-.08-.6s0-.35-.08-.51a3.62,3.62,0,0,1,.8-3.33,9.58,9.58,0,0,0-.8,1l-.34.49-.11-.58a62.11,62.11,0,0,1-.4-11.06l0-.1A16.78,16.78,0,0,1,146.2,56c-.15.18-.29.37-.43.57l-.75,1,.3-1.24c.3-1.24,1.05-2.14,2.42-3.77.4-.48.87-1,1.4-1.7a12,12,0,0,0-3.51,2.79l-.69.77.27-1c.19-.73.39-1.45.6-2.17h0c.23-.66.46-1.34.68-2a43.23,43.23,0,0,1,1.61-4.38c.1-.24.2-.47.31-.7l.08-.09.81-.58,0,0-.81.51.46-.84c.27-.5.55-1,.83-1.38a15.43,15.43,0,0,1,1.3-1.65,15.42,15.42,0,0,1,5.81-2.59c-.61-.18-1.91-.22-4.34.94l-.46.29c-.34.21-.67.43-1,.66s-.66.45-1,.66l-1.46.93,1.13-1.3a13.23,13.23,0,0,1,1.8-1.72,7.63,7.63,0,0,1,4.88-1.86,2.62,2.62,0,0,1-1-.79,5.24,5.24,0,0,1-.71-1.95,4.51,4.51,0,0,0-.57-1.63l-.73-1.06,1.07.71a2.8,2.8,0,0,1,1,1.4c.07.1.19.24.33.4a4.06,4.06,0,0,0,2.53,1.27c.23-.5.47-1,.72-1.51,4.59-9.29,5.07-9.42,6-9.68a1.42,1.42,0,0,1,1.12.1.76.76,0,0,1,.3.58,3.27,3.27,0,0,1-.35,1.27l-.14.32a34.47,34.47,0,0,1-3.27,6.2c-.27.42-.53.84-.79,1.26l-.49.9-.15.29a3.52,3.52,0,0,1,.72.76l.36.26a2.53,2.53,0,0,1,1.51,0,1.64,1.64,0,0,1,.79.57l0,.06a4,4,0,0,0,.49,0c.1-.55.2-1.1.32-1.65,2.06-10.15,2.49-10.4,3.35-10.89a1.38,1.38,0,0,1,1.11-.19.7.7,0,0,1,.43.48,2.9,2.9,0,0,1,0,1.31c0,.13,0,.25,0,.35a33.87,33.87,0,0,1-1.59,6.84c-.15.47-.29.94-.43,1.42,0,.1-.15.59-.29,1.15-.19.83-.31,1.34-.4,1.65a3.34,3.34,0,0,0,1.27-.55,2.9,2.9,0,0,1,1.87-.58,1.65,1.65,0,0,1,.91.35l.44.39a6.36,6.36,0,0,0,.8-.83l.83-1-.4,1.25a3.78,3.78,0,0,1-1.11,1.67,4.27,4.27,0,0,1-2.41,1.13,15.32,15.32,0,0,1,1.37.76,6,6,0,0,0,3.44,1.22l.27,0a1.2,1.2,0,0,0,.21-.13l1.62-1.11-1,1.18.48,0-.75.34a3,3,0,0,1-2.75.86,10.08,10.08,0,0,1-2.88-1.12c-1-.52-2.2-1.11-2.72-.91a16.82,16.82,0,0,1,4.24,2.2c4,2.68,4.46,5.13,4.47,5.23l.16.89-.59-.68c-.34-.4-.7-.78-1.06-1.15.58.63,1.12,1.27,1.64,1.93l0,.12c.17,1,.19,1.15.28,1.68l.17,1-.62-.87c-.27-.38-.55-.75-.83-1.1.23.38.46.81.68,1.23s.5.93.74,1.3l0,.12.05.41c.56,3.69.56,3.77.59,4.12s0,.62.29,2.62l.11.82-.54-.62a6.67,6.67,0,0,0-1.36-1.3c-.32-.22-.94-.71-1.59-1.23,1.27,1.6,2.85,3.65,3.44,4.42l.06.08,0,.14a17.68,17.68,0,0,0,.07,4.16c.07.75.16,1.61.21,2.69l0,.65s.07.59.18,1.38l.17,1.16-.63-1a11.67,11.67,0,0,0-1.12-1.47c.53.69,1.08,1.48,1.76,2.54l0,.09c.36,1.93.7,3.18,1,4.51.41,1.5.86,3.19,1.44,6.18l.13.72-.54-.48c-.19-.16-.37-.32-.55-.46a14.47,14.47,0,0,1,1.1,1.06l.06.11c.11.45.23.92.37,1.39l.35,1.12-.63-.71q.19.28.39.6l0,.06V85a20.5,20.5,0,0,1-.64,5.69,11.12,11.12,0,0,1-.56,1.15l-.18.34-.2-.06c-.75-.25-1.13-.36-1.45-.45-.71-.21-1.14-.34-4.65-1.63l-.15,0v-.16a21.84,21.84,0,0,1,0-3.9,6.82,6.82,0,0,0-1,2.75l-.06.49-.36-.33a40.22,40.22,0,0,1-6.12-7l-.05-.09v-.09c.06-.36.11-.76.17-1.19,0,.22-.08.42-.12.61l-.11.59-.34-.49c-.06-.08-.11-.16-.16-.24l-.11-.17v0l-.42-.76a29.79,29.79,0,0,1-2.1-4.42c-.08-.21-.16-.39-.23-.57s-.14-.33-.21-.47a3.64,3.64,0,0,1-.09-3.37c-.13.25-.24.51-.35.77-.11,1.78-.11,3-.1,4.3,0,1.55,0,3.32-.19,6.35l-.05.73-.41-.61c-.13-.19-.26-.38-.4-.56.31.48.6.93.79,1.28l0,.06v.07c0,.43,0,.94,0,1.44l0,1.17-.43-.85c.08.22.15.45.23.68l0,.07,0,.06a20.38,20.38,0,0,1-2.07,5.33,10.18,10.18,0,0,1-.84,1Zm-5.12-4c2.92,2,3.3,2.27,3.92,2.64l1.12.7a8.6,8.6,0,0,0,.76-.87,20.34,20.34,0,0,0,2-5.12c-.22-.68-.46-1.34-.69-2l-.7-1.93.85,1a6.72,6.72,0,0,1,.68.91v-.41c-.54-1-1.84-2.79-2.33-3.47l-1-1.39,1.27.92a10.64,10.64,0,0,1,2.16,2.18c.16-2.58.16-4.12.15-5.61,0-1.31,0-2.56.11-4.38V71.8a10.57,10.57,0,0,1,2-3.18l1.19-1.28L164,68.9c-1.84,3.66-1.5,4.37-1,5.43.07.16.15.32.22.5s.15.37.23.57A29.21,29.21,0,0,0,165.14,79a12.07,12.07,0,0,1,1.2-4.27l.71-1.34-.24,1.49c-.06.36-.11.7-.17,1-.16.94-.31,1.85-.43,3,.1-.42.23-.86.37-1.29l.48-1.44V77.7a27,27,0,0,1-.35,3.92,39.2,39.2,0,0,0,5.64,6.51,8.44,8.44,0,0,1,1.23-2.95l.29-.49.56-1-.13,1.57a22.41,22.41,0,0,0-.09,4.34c3.36,1.23,3.78,1.35,4.47,1.56.29.08.64.18,1.26.39a9.92,9.92,0,0,0,.51-1,19.91,19.91,0,0,0,.62-5.45c-.38-.61-.78-1.18-1.17-1.74l-1.17-1.71,1.07.71a7.7,7.7,0,0,1,.88.7c0-.13-.07-.26-.1-.39a39.49,39.49,0,0,0-3.12-2.75l-1.35-1.1,1.47.57a10.27,10.27,0,0,1,2.64,1.56c-.5-2.54-.9-4-1.29-5.46s-.69-2.57-1.05-4.5A39.65,39.65,0,0,0,175,67l-1.48-1.85,1.3.84a11.77,11.77,0,0,1,2.74,2.61c0-.15,0-.26,0-.33-2-2.53-3.34-4-4.43-5.21l-1-1.06-1.15-1.31,1.47.93a17.88,17.88,0,0,1,5,5c0-.64-.11-1.2-.16-1.71a18.2,18.2,0,0,1-.08-4.16c-.95-1.23-3.71-4.81-4.78-6.06l-1.17-1.37,1.5,1c.33.22,1,.74,1.68,1.3s1.3,1,1.62,1.25a5.52,5.52,0,0,1,.92.79c-.17-1.33-.19-1.64-.2-1.86s0-.41-.58-4.08l0-.36c-.26-.41-.49-.85-.74-1.31a19,19,0,0,0-1-1.67l-1.19-1.65-2-2.7,1.68,1.48a22.31,22.31,0,0,1,2.83,3.06c0-.16-.06-.35-.1-.6a38.84,38.84,0,0,0-5.72-5.79l.29-.41a22.79,22.79,0,0,1,4.63,3.71,11.85,11.85,0,0,0-3.67-3.57,15.22,15.22,0,0,0-4.37-2.21l-.11,0c-.07.48-.14,1-.2,1.47h0l-.08.59c-1.64,14.42,1.93,29,10.91,44.62l-.42.26A69.88,69.88,0,0,1,165,50l-.06-1.43.34.83.06-.6-.21-.44L165,47.9v-.42c0-.27,0-.54,0-.81v-1l.27.5c-.06-.2-.14-.42-.23-.66l0,0v-.05c0-1.24.1-2.53.2-3.84v-.07h0l0-.39h0l0-.48c0-.14,0-.28,0-.42,0-.32.06-.65.1-1l-.29.34-.07,0c-.28.14-.59.31-.95.52l-.15.08h0l-.46.26-.18-.08c-.25-.21-.5-.44-.75-.67l-.26-.23.55-.29.13.12c.22.21.43.42.66.62-.17-.16-.34-.33-.5-.5l-.27-.27.36-.13a3.15,3.15,0,0,1,1.89-.22l.21.07v0l.12,0c.08-.59.16-1.21.25-1.86l-.5,0,.52-.14.12-.74V36c.2-1.25.44-2.55.69-3.82-.14.67-.29,1.39-.44,2.16-.13.6-.24,1.2-.34,1.81l0,.17-.17,0-.43.06.24.35-.59-.33a4.56,4.56,0,0,1-1.79-.34l-.73-.3.09,0-.06,0-.37-.25a.2.2,0,0,1,0,.08l.14.27-.27.12a3.22,3.22,0,0,1-1.64.07l-.26-.06c-.07.13-.13.27-.2.41l.65,0a4.78,4.78,0,0,0,1.55-.39l.2-.07.11.18a3.85,3.85,0,0,0,.64.87l.45.44h-.63a5,5,0,0,1-.91-.1,3.68,3.68,0,0,0,1.71.11h.06l.06,0a2.24,2.24,0,0,0,1.57,0l.39-.15-.17,1.17-.24,0a4.88,4.88,0,0,0-2.33.52l-.16.07-.12-.12a7.43,7.43,0,0,0-1.19-1,10.06,10.06,0,0,1,1,.9l.24.22-.49.3-.19-.1a8.41,8.41,0,0,0-1.41-1,12.22,12.22,0,0,1,1.25,1l.24.21-.26.18c-.19.14-.38.31-.58.48l-.17.15-.17-.15a11.55,11.55,0,0,0-1.95-1.48l-.09-.05c-4.21,9.88-7.75,25.22-1.62,47.83l-.47.15a70.47,70.47,0,0,1,.57-47.7h0c.11-.3.23-.6.35-.91l-.37.24-.05,0a15.13,15.13,0,0,0-5.8,2.51,14.6,14.6,0,0,0-1.22,1.57l-.33.52a17.69,17.69,0,0,1,2.61-1.2l2-.7-2.27,1.5c-1,.64-2.17,1.43-3.29,2.24-.1.2-.2.41-.29.62A43.67,43.67,0,0,0,147,49.39c-.25.75-.49,1.48-.74,2.2h0l-.3,1a12.71,12.71,0,0,1,3.47-2.44l.52-.27,1.06-.57-.74.94c-.83,1.07-1.55,1.93-2.13,2.62s-1.11,1.33-1.49,1.86A10.75,10.75,0,0,1,148.92,53l1.87-1.06-1.57,1.46a19,19,0,0,0-3.64,4.47,62.48,62.48,0,0,0,.3,10.27,10.4,10.4,0,0,1,2.56-2.38l1.48-.93-1.16,1.31c-2.7,3.07-2.56,3.84-2.34,5q0,.26.09.54c0,.2.05.4.07.62a30.85,30.85,0,0,0,.68,3.93,12.28,12.28,0,0,1,2.26-3.83l1-1.11-.61,1.38c-.15.34-.29.67-.44,1-.38.86-.76,1.69-1.16,2.73.21-.39.44-.78.69-1.16l.83-1.27-.38,1.47a26.31,26.31,0,0,1-1.33,3.7,39.59,39.59,0,0,0,3.79,7.74,8.46,8.46,0,0,1,1.95-2.54c.13-.13.27-.26.4-.4l.8-.81-.53,1.48A23,23,0,0,0,153.36,88.74Zm12.52-11.19a13.85,13.85,0,0,0-.31,2.35l0,.75C165.63,79.42,165.75,78.44,165.88,77.55ZM148.37,75a13,13,0,0,0-.9,2.2l-.23.74v0C147.65,76.69,148,75.78,148.37,75ZM166.45,59.2a68.56,68.56,0,0,0,4.35,15A74.13,74.13,0,0,1,166.45,59.2Zm-8.09-21.85c-.21.53-.42,1-.6,1.54h0a70,70,0,0,0-3.69,34.46c-2.2-17,1.37-28.86,5-36.81l-.37-.1-.34.84.1,0Zm16.17,26.56c.64.71,1.37,1.55,2.23,2.61A18.71,18.71,0,0,0,174.53,63.91Zm-9-12.45c0,.52.07,1,.11,1.56,0-.52-.07-1-.1-1.54h0Zm-.11-3.63,0,.1V47.8l0-.1Zm0-2.43.09.24c.06-1.25.16-2.51.29-3.76h-.2C165.57,43.09,165.51,44.27,165.48,45.4Zm0-4.14h0Zm.28-.43.24.09c.14-1.14.31-2.22.49-3.25h-.37c0,.31-.08.6-.12.9h0l0,0c-.08.59-.14,1.16-.2,1.7l0,.4Zm2.54-2a16.63,16.63,0,0,1,1.86.84,19.31,19.31,0,0,0,2,.89c-.5-.21-1-.47-1.48-.72A11.26,11.26,0,0,0,168.28,38.82Zm.69-.48a13.83,13.83,0,0,1,1.76.89c.34.19.67.38,1,.54l-.7-.4A9.44,9.44,0,0,0,169,38.34Zm-5.2,1,.22.21.62-.34A2.61,2.61,0,0,0,163.77,39.34Zm-4.37-1.13A11.35,11.35,0,0,1,161,39.45l.2-.17C160.55,38.7,159.86,38.14,159.4,38.21Zm7.4.52,0,.14a1.2,1.2,0,0,1,.34-.17Zm.06-.39,0,.11Zm-4.57-.44c.17.14.33.29.49.44a6.33,6.33,0,0,1,1.06-.36l-.33-.08A4.15,4.15,0,0,1,162.29,37.9Zm-6-1.23a6.88,6.88,0,0,0-4,1.37c3.24-1.55,4.67-1,5.14-.77l.19.12v0l.13,0c.22-.57.46-1.15.71-1.74l-.32-.07h.36c.57-1.34,1.21-2.73,1.86-4.06-.27.53-.55,1.1-.85,1.71s-.54,1.11-.79,1.66l-.07.16h-.18a4.54,4.54,0,0,1-3-1.45l-.27-.31v0a4.88,4.88,0,0,0,.63,1.76,2.12,2.12,0,0,0,2,.83l.42,0L157.88,37l-.23-.09A4.28,4.28,0,0,0,156.32,36.67Zm2.84.94s0,.11-.07.17a.94.94,0,0,1,.36-.08l-.3-.05Zm10.18.1A3.91,3.91,0,0,0,171.6,37,5.44,5.44,0,0,1,169.34,37.71Zm-3.14-.77-.09.68.39-.11c0-.2.07-.39.11-.59Zm.92,0-.09.45.63-.18a4.93,4.93,0,0,0,1.45-.8l.51-.36-.37.23a3.52,3.52,0,0,1-1.85.65Zm1.61.32a5,5,0,0,0,3-.9l.26-.18-.46-.12c-.79-.21-1.42.24-2.15.76C169.18,36.93,169,37.08,168.73,37.22Zm-7.32-.54a4.29,4.29,0,0,0,.7.15c-.07-.1-.14-.2-.21-.32Zm4.9-.43c0,.15-.05.3-.07.44l.43-.11c.09-.47.19-.93.28-1.37l-.53.89-.1.14ZM159,35.76l-.27.64h.41l.26-.54ZM169.81,24c.18,1.25-.33,3.19-1,5.88-.47,1.8-1,3.86-1.5,6.24.11-.42.26-1,.37-1.51s.26-1.08.29-1.19l.43-1.42a34,34,0,0,0,1.58-6.74c0-.11,0-.24.05-.37a2.89,2.89,0,0,0,0-1.09.25.25,0,0,0-.14-.17.85.85,0,0,0-.63.14c-.59.34-1,.57-2.31,6.54a21.25,21.25,0,0,1,1.89-5.8h0l.19-.2c.09-.1.27-.3.31-.36l.16.1Zm-9.17,11.6a2.51,2.51,0,0,0,.74,0,4.45,4.45,0,0,0-.37-.64Zm4.54-10.88-.13.09c-1.23,1-3.94,6.13-5.94,10.76h.45c1.19-2.47,2.35-4.54,3.31-6.23A26.94,26.94,0,0,0,165.18,24.71Zm3.85-.06.21.15c-.78,1.05-2,5.59-2.81,10.69l.54-.39c.44-2,.9-3.78,1.32-5.36a26.39,26.39,0,0,0,1.05-5.06.44.44,0,0,0-.1.12Zm-3.55-.53.32,0c-.14,1.25-1.13,3-2.49,5.41-.88,1.55-1.94,3.42-3,5.62l.43-.79h0l.36-.68c.25-.46.45-.84.5-.92l.79-1.27a34.26,34.26,0,0,0,3.24-6.12l.14-.34a2.83,2.83,0,0,0,.31-1.05.25.25,0,0,0-.09-.2.87.87,0,0,0-.65,0c-.65.18-1.09.3-3.78,5.51a20.14,20.14,0,0,1,3.19-4.89,1.29,1.29,0,0,1,.23-.15l.39-.26Zm11.8,63L177.2,87l.22-.13.16-.18-.11.15.16-.1-.16.1.16-.1-.16.1Zm-20.33,0,0-.1.47-.15Zm1.75-25-.36-.68-.77-1.57,1.32,1.46v.21Zm2.78-20.23-.2-.21.19-.15-.11-.12.11.12,0,0v0l.18-.15.22.26-.22.18Zm.73-.54-.16-.17-.73-.75-.21-.21.24-.17a8.17,8.17,0,0,1,.72-.48l.15-.09.14.12c.26.23.53.46.79.67l.26.21-.28.19-.74.54Zm-.33-1.07.39.4.31-.23-.41-.35Z"/></g><path class="cls-4" d="M16.19,36.34c-9.07,0-14.55-6.55-14.55-17.22S7.08,2.22,16.53,2.22a20,20,0,0,1,2.35.14,32.68,32.68,0,0,1,5.51,1.17l1.1-.6c1.17-.61,1.36-.71,1.7-.71s.53.19.57,1.08l.41,8.61a5.83,5.83,0,0,1,0,.7c0,.42-.15.7-.41.7s-.61-.51-.84-1.4A10.93,10.93,0,0,0,16.8,4C9.69,4,7.42,11.12,7.42,19.21c0,10.39,3.52,15.4,9.11,15.4,4.24,0,8.39-3,10.21-8.19l.38-1.12c.15-.52.41-.75.64-.75.41,0,.45.09.45,1.4v8l0,.61c0,.28-.11.47-.34.47a1.94,1.94,0,0,1-.34-.09,12.54,12.54,0,0,0-2.15-.8C21.3,35.87,19.56,36.34,16.19,36.34Z"/><path class="cls-4" d="M35.66,8.45c0-3.23-.76-3.89-2.83-3.89h-.49c-.16,0-.19,0-.19-.23V3.11c0-.14,0-.18.19-.18H44.09c.15,0,.19,0,.19.18V4.33c0,.19,0,.23-.19.23H43.6c-2.08,0-2.84.66-2.84,3.89V30.16c0,3.23.76,3.89,2.84,3.89h.49c.15,0,.19,0,.19.23V35.5c0,.14,0,.18-.19.18H32.34c-.16,0-.19,0-.19-.18V34.28c0-.19,0-.23.19-.23h.49c2.07,0,2.83-.66,2.83-3.89Z"/><path class="cls-4" d="M68,27.45,78,2.93H86.2c.15,0,.18,0,.18.18V4.33c0,.19,0,.23-.18.23h-.5c-2.07,0-2.83.66-2.83,3.89V30.16c0,3.23.76,3.89,2.83,3.89h.5c.15,0,.18,0,.18.23V35.5c0,.14,0,.18-.18.18H74.48c-.19,0-.23,0-.23-.18V34.28c0-.19,0-.23.23-.23h.45c2.08,0,2.84-.66,2.84-3.89V7.37c0-.33,0-.42-.12-.42s-.15.09-.22.28L66.35,34.94c-.11.28-.19.7-.41.7h-.15c-.16,0-.27-.24-.46-.7L54.11,8.87c-.08-.19-.15-.28-.19-.28s-.15.23-.15.42V30.16c0,3.23.87,3.89,2.94,3.89H57c.15,0,.19,0,.19.23V35.5c0,.14,0,.18-.19.18h-7.9c-.15,0-.19,0-.19-.18V34.28c0-.19,0-.23.19-.23h.3c2.08,0,3.21-.66,3.21-3.89V8c0-3-.38-3.42-2.45-3.42h-.49c-.16,0-.19,0-.19-.23V3.11c0-.14,0-.18.19-.18h8.16Z"/><path class="cls-4" d="M117.87,31.14c.65,1.69,1.78,2.91,3.52,2.91h.49c.15,0,.19,0,.19.23V35.5c0,.14,0,.18-.19.18H109.14c-.15,0-.19,0-.19-.18V34.28c0-.19,0-.23.19-.23h.49c1.93,0,2.42-1,2.42-2.06a3.16,3.16,0,0,0-.22-1.22l-1.44-3.6H99.16L98,30.54a19.87,19.87,0,0,0-.68,2c0,.84.27,1.55,2.12,1.55h.49c.15,0,.19,0,.19.23V35.5c0,.14,0,.18-.19.18H91.49c-.15,0-.19,0-.19-.18V34.28c0-.19,0-.23.19-.23H92c2.38-.14,3.18-.8,4.16-3.56l7.63-21.2-.64-1.64a1.58,1.58,0,0,1-.11-.33c0-.37.19-.51,1.36-1.77a6.58,6.58,0,0,0,1.78-2.62c.15-.43.3-.57.6-.57.11,0,.19.1.3.47Zm-18-5.94h9.75l-5.14-13Z"/><path class="cls-4" d="M150.12,11.26c0,3.74-1.89,6.17-5.6,7.25-.26,0-.38.14-.38.23s.12.24.31.47c1.24,1.5,2,3.14,3.36,6.32,1.55,3.74,1.89,5.29,2.65,6.64a22.36,22.36,0,0,0,2.79,3.51h-6.56c-2.35-4.16-3.94-8.93-5.23-12-1.06-2.48-1.47-3.28-2.42-4.12h-3.55V30.16c0,3.23.76,3.89,2.83,3.89h.49c.16,0,.19,0,.19.23V35.5c0,.14,0,.18-.19.18H127c-.15,0-.18,0-.18-.18V34.28c0-.19,0-.23.18-.23h.5c2.07,0,2.83-.66,2.83-3.89V8.45c0-3.23-.76-3.89-2.83-3.89H127c-.15,0-.18,0-.18-.23V3.11c0-.14,0-.18.18-.18h12.55C146.15,2.93,150.12,6.11,150.12,11.26Zm-12.7,7c4.72,0,7.78-3.05,7.78-7.77,0-4.26-2.27-6.41-6.91-6.41-2.2,0-2.8.51-2.8,3.65V18.18A15.43,15.43,0,0,0,137.42,18.28Z"/><path class="cls-4" d="M204.66,2.27c7.9,0,14.18,6.18,14.18,17.27,0,9.55-6.05,16.75-14.06,16.75-8.51,0-14.33-6.83-14.33-16.8C190.45,10.27,195.18,2.27,204.66,2.27ZM204.74,35c7,0,8.16-8,8.16-15.58,0-7-.53-15.92-8.2-15.92-6,0-8.47,4.59-8.47,15.78C196.23,26.42,197,35,204.74,35Z"/><path class="cls-4" d="M251.84,36c0,.37,0,.37-.16.37s-.18-.05-.34-.23L230.14,8.35c-.3-.37-.45-.56-.57-.56s-.11.33-.11.84V30.16c0,3.23.87,3.89,2.95,3.89h.3c.15,0,.19,0,.19.23V35.5c0,.14,0,.18-.19.18h-7.9c-.15,0-.19,0-.19-.18V34.28c0-.19,0-.23.19-.23h.3c2.08,0,3.22-.66,3.22-3.89V10.41c0-3.55,0-3.93-.83-4.86a2.54,2.54,0,0,0-2.39-1h-.3c-.15,0-.19,0-.19-.23V3.11c0-.14,0-.18.19-.18h7.82a1.16,1.16,0,0,1,1.06.56l17,22.23V8.45c0-3.23-.87-3.89-2.95-3.89h-.3c-.15,0-.19,0-.19-.23V3.11c0-.14,0-.18.19-.18h7.9c.15,0,.19,0,.19.18V4.33c0,.19,0,.23-.19.23h-.3c-2.08,0-3.21.66-3.21,3.89Z"/><path class="cls-4" d="M146.37,22.28l0,0a39.19,39.19,0,0,0,9.37,15.83,56.26,56.26,0,0,0,12.37,9.23c13.2,7.59,27.77,11.56,42.85,13.12,16.21,1.67,33,.9,48.29-5.21,6.72-2.68,13.28-6.62,18-12.3,3.42-4.15,6.12-9.71,6-15.2a11.87,11.87,0,0,0-7.89-10.6,16.64,16.64,0,0,0-15.24,2,21.87,21.87,0,0,1-4.59,2.8,15.34,15.34,0,0,0,1.08-2.15,12.69,12.69,0,0,1,1.81-2.2c9.11-8.87,27-4.84,29.11,8.43,2.28,14.11-13.66,26-24.74,31.18a71.38,71.38,0,0,1-17.36,5.4,127.54,127.54,0,0,1-48.71-.93c-14.85-3.09-29.31-8.82-41.53-17.92-1.1-.82-2.17-1.67-3.23-2.53a25.42,25.42,0,0,1-6-6.52,29.83,29.83,0,0,1-2.26-5.45,3.52,3.52,0,0,1-.27-1.42,3.55,3.55,0,0,1,.58-1.41Z"/><path class="cls-4" d="M13.51,58.43c-5,0-8-3.14-8-8.24s3-8.09,8.17-8.09a10.75,10.75,0,0,1,1.28.07,18.84,18.84,0,0,1,3,.56c.27-.14.45-.23.6-.29.64-.3.74-.34.93-.34s.29.09.31.52l.23,4.12a2.65,2.65,0,0,1,0,.33c0,.2-.08.34-.23.34s-.33-.25-.45-.67c-.63-2.2-3.18-3.81-5.58-3.81-3.89,0-5.14,3.43-5.14,7.3,0,5,1.93,7.37,5,7.37a6.11,6.11,0,0,0,5.59-3.92l.21-.54c.08-.24.23-.35.35-.35s.25,0,.25.67v3.83l0,.29c0,.13-.06.22-.19.22l-.18,0a7.15,7.15,0,0,0-1.18-.38A12.29,12.29,0,0,1,13.51,58.43Z"/><path class="cls-4" d="M45.65,55.94a2,2,0,0,0,1.92,1.39h.27c.09,0,.11,0,.11.11V58c0,.06,0,.09-.11.09h-7c-.08,0-.1,0-.1-.09v-.59c0-.09,0-.11.1-.11h.27c1.06,0,1.33-.47,1.33-1a1.38,1.38,0,0,0-.13-.59L41.54,54H35.39l-.64,1.61a7.3,7.3,0,0,0-.38.94c0,.41.15.74,1.16.74h.27c.09,0,.11,0,.11.11V58c0,.06,0,.09-.11.09H31.18c-.08,0-.1,0-.1-.09v-.59c0-.09,0-.11.1-.11h.27c1.31-.07,1.74-.38,2.28-1.7l4.19-10.15-.35-.78c0-.07-.07-.11-.07-.16s.11-.25.75-.85a3.13,3.13,0,0,0,1-1.25c.09-.21.17-.27.33-.27s.11,0,.17.22ZM35.78,53.1h5.35l-2.82-6.23Z"/><path class="cls-4" d="M67.92,46.89c0,.25-.06.34-.23.34s-.16-.07-.27-.27l-.33-.76c-1-2.4-2.17-3.56-3.67-3.56a2.63,2.63,0,0,0-2.61,2.57c0,1.28.56,1.86,3.38,2.87,2.38.85,4.62,2,4.62,5.13a5.09,5.09,0,0,1-5,5.2,6.28,6.28,0,0,1-3-.83,2.92,2.92,0,0,0-1,.63h-.63V53.93c0-.27.09-.36.29-.36s.23.07.29.29c.73,1.81,2,3.94,4.15,3.94a3,3,0,0,0,2.9-3c0-1.73-1-2.51-3.25-3.23-2.78-.89-4.62-2.06-4.62-5a4.33,4.33,0,0,1,4.58-4.48,5.25,5.25,0,0,1,2.73.69,4.52,4.52,0,0,0,1-.63h.75Z"/><path class="cls-4" d="M81.22,45.08c0-1.55-.41-1.86-1.55-1.86H79.4c-.08,0-.11,0-.11-.11v-.58c0-.07,0-.09.11-.09h6.44c.09,0,.11,0,.11.09v.58c0,.09,0,.11-.11.11h-.27c-1.14,0-1.55.31-1.55,1.86V55.47c0,1.55.41,1.86,1.55,1.86h.27c.09,0,.11,0,.11.11V58c0,.06,0,.09-.11.09H79.4c-.08,0-.11,0-.11-.09v-.59c0-.09,0-.11.11-.11h.27c1.14,0,1.55-.31,1.55-1.86Z"/><path class="cls-4" d="M112,58.25c0,.18,0,.18-.08.18s-.1,0-.19-.11L100.1,45c-.17-.17-.25-.26-.31-.26s-.07.15-.07.4v10.3c0,1.55.48,1.86,1.62,1.86h.17c.08,0,.1,0,.1.11V58c0,.06,0,.09-.1.09H97.18c-.09,0-.11,0-.11-.09v-.59c0-.09,0-.11.11-.11h.16c1.14,0,1.76-.31,1.76-1.86V46c0-1.7,0-1.88-.45-2.33a1.48,1.48,0,0,0-1.31-.47h-.16c-.09,0-.11,0-.11-.11v-.58c0-.07,0-.09.11-.09h4.29a.66.66,0,0,1,.58.27l9.32,10.63V45.08c0-1.55-.48-1.86-1.62-1.86h-.16c-.08,0-.11,0-.11-.11v-.58c0-.07,0-.09.11-.09h4.33c.08,0,.1,0,.1.09v.58c0,.09,0,.11-.1.11h-.17c-1.14,0-1.76.31-1.76,1.86Z"/><path class="cls-4" d="M133.66,42.12c4.34,0,7.77,3,7.77,8.27a7.69,7.69,0,0,1-7.7,8c-4.67,0-7.86-3.27-7.86-8C125.87,46,128.46,42.12,133.66,42.12Zm.05,15.68c3.85,0,4.47-3.83,4.47-7.46,0-3.36-.29-7.61-4.5-7.61-3.27,0-4.64,2.19-4.64,7.55C129,53.68,129.46,57.8,133.71,57.8Z"/><path class="cls-4" d="M182,11.26c0,3.74-1.89,6.17-5.59,7.25-.27,0-.38.14-.38.23s.11.24.3.47c1.25,1.5,2,3.14,3.36,6.32,1.55,3.74,1.89,5.29,2.65,6.64a22.23,22.23,0,0,0,2.8,3.51h-6c-2.3-2.74-4.55-8.93-5.83-12-1.06-2.48-1.48-3.28-2.42-4.12h-3.56V30.16c0,3.23.76,3.89,2.84,3.89h.49c.15,0,.19,0,.19.23V35.5c0,.14,0,.18-.19.18H158.83c-.15,0-.19,0-.19-.18V34.28c0-.19,0-.23.19-.23h.49c2.08,0,2.83-.66,2.83-3.89V8.45c0-3.23-.75-3.89-2.83-3.89h-.49c-.15,0-.19,0-.19-.23V3.11c0-.14,0-.18.19-.18h12.55C178,2.93,182,6.11,182,11.26Zm-12.7,7c4.72,0,7.79-3.05,7.79-7.77,0-4.26-2.27-6.41-6.92-6.41-2.19,0-2.8.51-2.8,3.65V18.18A15.52,15.52,0,0,0,169.26,18.28Z"/><path class="cls-4" d="M189.6,43.3c-3-2.17-6.14-4.19-9.09-6.43a12.39,12.39,0,0,1-3.61-4c-.84-1.59-1.23-3.4-1.92-5.06l3.21-5.56c.91,1.94,1.38,3,1.91,4.35,1.56,3.91,5.24,7.13,8.44,9.69A70.31,70.31,0,0,0,223.35,51c12.24,1.61,25.49,1.74,36.9-3.59,5.29-2.47,10.3-6.28,12.38-11.94,1.21-3.3,1.16-7.32-1.14-10s-6.61-3.27-9.93-1.88c-2.15.89-3.94,2.45-6,3.56a11.88,11.88,0,0,1,6.7-6.76,13.86,13.86,0,0,1,7.36-.63,11.27,11.27,0,0,1,5.53,2.4,10.24,10.24,0,0,1,3.28,7.74c0,5.87-3.79,11.4-8.14,15.06-9.16,7.72-21.88,10.12-33.53,10.58a90,90,0,0,1-23.2-2.14C205.15,51.53,196.65,48.4,189.6,43.3Z"/></svg>